<svg width="32" height="32" fill="none" xmlns="http://www.w3.org/2000/svg"><g clip-path="url(#a)" fill="#262626"><path d="M16.031 24.782a3.125 3.125 0 1 0 0-6.25 3.125 3.125 0 0 0 0 6.25Z"/><path d="M31.063 0H.938A.937.937 0 0 0 0 .937v22.5c0 .517.42.937.938.937h10.899c-2.15-3.307.235-7.717 4.194-7.717 3.96 0 6.344 4.41 4.195 7.717h10.837c.517 0 .937-.42.937-.938V.937A.937.937 0 0 0 31.062 0ZM12.25 3.812h7.5a.938.938 0 0 1 0 1.875h-7.5a.938.938 0 0 1 0-1.875Zm13.125 11.25H6.625a.937.937 0 1 1 0-1.875h18.75a.938.938 0 0 1 0 1.875Zm0-3.75H6.625a.937.937 0 1 1 0-1.875h18.75a.938.938 0 0 1 0 1.875ZM12.297 24.977v6.084a.938.938 0 0 0 1.455.781l2.31-1.531 2.31 1.531a.939.939 0 0 0 1.456-.781v-6.156a4.99 4.99 0 0 1-7.531.072Z"/></g><defs><clipPath id="a"><path fill="#fff" d="M0 0h32v32H0z"/></clipPath></defs></svg>