<svg width="32" height="32" fill="none" xmlns="http://www.w3.org/2000/svg"><g clip-path="url(#a)" fill="#262626"><path d="M25.436 16v-3.985l-8.33 3.57a2.81 2.81 0 0 1-2.216 0l-8.329-3.57V16c0 .38.23.722.58.867l8.5 3.5c.23.094.484.094.714 0l8.5-3.5a.937.937 0 0 0 .581-.867Z"/><path d="M30.936 7a.938.938 0 0 0-.565-.86l-14-6.063a.937.937 0 0 0-.745 0l-14 6.063a.938.938 0 0 0 .003 1.722l14 6c.237.1.504.1.739 0l12.693-5.44V16a.938.938 0 0 0 1.875 0c0-9.204.006-9 0-9ZM25.499 23.063h-7.205a.927.927 0 0 1-.08.108c-.8.949-1.278 2.547-1.278 4.276 0 1.72.493 3.39 1.287 4.357.05.061.091.127.124.196H25.5c1.895 0 3.437-2.019 3.437-4.5 0-1.129-.322-2.201-.907-3.02-.643-.9-1.565-1.418-2.53-1.418Zm0 7.062c-.738 0-1.563-1.122-1.563-2.625 0-1.51.824-2.563 1.563-2.563.738 0 1.562 1.053 1.562 2.563 0 1.503-.825 2.625-1.562 2.625ZM12.052 23.063H6.5c-.965 0-1.887.516-2.531 1.417-.585.819-.907 1.891-.907 3.02 0 2.481 1.542 4.5 3.438 4.5h5.616c-1.373-2.553-1.417-6.36-.063-8.938ZM16.05 23.063h-1.738c-.767.823-1.376 2.402-1.376 4.384 0 2.04.658 3.722 1.466 4.553h1.715c-1.373-2.56-1.42-6.366-.068-8.938Z"/></g><defs><clipPath id="a"><path fill="#fff" d="M0 0h32v32H0z"/></clipPath></defs></svg>