<svg width="32" height="32" fill="none" xmlns="http://www.w3.org/2000/svg"><path d="M26.803 15.408a1.386 1.386 0 0 0-1.381-1.178H14.228l-2.033-2.407c-.431-.505-1.063-.824-1.729-.824H3.193c-.518 0-1.01.242-1.346.64a1.812 1.812 0 0 0-.39 1.454l.193 1.137h-.127a1.376 1.376 0 0 0-1.377 1.588L2.404 30.47C2.541 31.35 3.3 32 4.191 32h23.443a1.396 1.396 0 0 0 1.379-1.595l-2.21-14.997ZM21.23 4.474h-8.757c-.603 0-1.093.545-1.093 1.15 0 .604.49 1.15 1.093 1.15h8.757c.605 0 1.094-.546 1.094-1.15 0-.605-.49-1.15-1.095-1.15ZM31.546 12.531a1.346 1.346 0 0 0-1.01-.477h-2.484l.566 5.24 1.35 9.152 1.89-12.846a1.357 1.357 0 0 0-.313-1.069Z" fill="#262626"/><path d="M9.28 2.113h15.284V12.49h2.114V1.344A1.36 1.36 0 0 0 25.326 0H8.423C7.615 0 6.98.665 6.98 1.474v8.033H9.28V2.113Z" fill="#262626"/><path d="M21.23 8.7h-8.757c-.525 0-.963.415-1.07.924.75.191 1.432.6 1.945 1.201l.16.173h7.721c.606 0 1.095-.545 1.095-1.15 0-.605-.49-1.148-1.095-1.148Z" fill="#262626"/></svg>