<svg width="32" height="32" fill="none" xmlns="http://www.w3.org/2000/svg"><g clip-path="url(#a)" fill="#262626"><path d="M13.187 9.687C5.95 9.687 0 14.664 0 20.781c0 2.446.949 4.93 2.688 6.857L.232 30.445A.937.937 0 0 0 .938 32h13.187c5.343 0 12.25-4.602 12.25-11.219 0-6.117-5.95-11.094-13.188-11.094ZM7.5 22.5a1.877 1.877 0 0 1-1.875-1.875c0-1.034.841-1.875 1.875-1.875 1.033 0 1.875.841 1.875 1.875A1.877 1.877 0 0 1 7.5 22.5Zm5.687 0a1.877 1.877 0 0 1-1.875-1.875c0-1.034.842-1.875 1.875-1.875 1.034 0 1.875.841 1.875 1.875a1.877 1.877 0 0 1-1.875 1.875Zm5.688 0A1.877 1.877 0 0 1 17 20.625c0-1.034.841-1.875 1.875-1.875 1.033 0 1.875.841 1.875 1.875a1.877 1.877 0 0 1-1.875 1.875Z"/><path d="M31.773 19.077 29.566 16.5c1.576-1.777 2.433-3.945 2.433-6.188C32 4.627 26.532 0 19.812 0c-6.077 0-11.24 3.787-12.15 8.716a17.346 17.346 0 0 1 5.525-.904c8.21 0 14.955 5.734 15.053 12.813h2.822c.8 0 1.23-.943.711-1.548Z"/></g><defs><clipPath id="a"><path fill="#fff" d="M0 0h32v32H0z"/></clipPath></defs></svg>