<svg width="32" height="32" fill="none" xmlns="http://www.w3.org/2000/svg"><path d="M23.51 30.125h-.938V28.25H9.449v1.875H8.51a.937.937 0 1 0 0 1.875h15a.937.937 0 1 0 0-1.875ZM19.76 22.625h-.139l-.385-2.462a10.256 10.256 0 0 1-3.226.524c-1.127 0-2.21-.188-3.226-.524l-.385 2.462h-.139a2.816 2.816 0 0 0-2.812 2.813v.937h13.125v-.938a2.816 2.816 0 0 0-2.813-2.812ZM7.573 5.688v4.687c0 4.653 3.784 8.438 8.437 8.438s8.438-3.785 8.438-8.438V5.687H7.573ZM23.51 0h-15a.937.937 0 0 0-.937.938v2.875h16.875V.937A.937.937 0 0 0 23.51 0ZM26.323 1.938v1.875c1.033 0 1.875.84 1.875 1.874 0 1.686-.705 3.23-1.875 4.336v.352a10.3 10.3 0 0 1-.227 2.139 7.814 7.814 0 0 0 3.977-6.826 3.754 3.754 0 0 0-3.75-3.75ZM5.698 10.375v-.333a5.944 5.944 0 0 1-1.896-4.354c0-1.034.842-1.875 1.875-1.875.008 0 .014.003.02.004V1.94l-.02-.002a3.754 3.754 0 0 0-3.75 3.75 7.813 7.813 0 0 0 4 6.837 10.306 10.306 0 0 1-.23-2.15Z" fill="#262626"/></svg>