<svg width="32" height="32" fill="none" xmlns="http://www.w3.org/2000/svg"><path d="M31.063 4.75h-.938v19.688c0 1.55-1.324 2.812-2.875 2.812h-8.598A2.818 2.818 0 0 1 16 29.125a2.818 2.818 0 0 1-2.652-1.875H4.75c-1.55 0-2.875-1.262-2.875-2.813V4.75H.937A.937.937 0 0 0 0 5.688v22.5c0 .518.42.937.938.937h10.535A2.818 2.818 0 0 0 14.125 31h3.75a2.818 2.818 0 0 0 2.652-1.875h10.535c.519 0 .938-.42.938-.938v-22.5a.937.937 0 0 0-.938-.937Z" fill="#262626"/><path d="M15.063 24.688V3.184C13.764 2.1 11.68 1 8.5 1a.937.937 0 0 0-.938.938v18.75c0 .518.42.937.938.937 4.336 0 6.145 2.399 6.563 3.063ZM27.25 25.375c.518 0 .938-.42.938-.938V3.813a.937.937 0 0 0-.938-.937h-7.5c-1.06 0-2.027.367-2.813.961v22.477c0-.518.42-.938.938-.938h9.375ZM4.75 2.875a.937.937 0 0 0-.938.938v20.625c0 .518.42.937.938.937h8.49c-.525-.636-1.902-1.875-4.74-1.875a2.816 2.816 0 0 1-2.813-2.813V2.875H4.75Z" fill="#262626"/></svg>