<svg width="28" height="28" fill="none" xmlns="http://www.w3.org/2000/svg"><path d="M6.937 17.084v-5.349c0-.386.055-.762.159-1.122H3.489c-.585 0-1.115.238-1.5.622a2.115 2.115 0 0 0-.622 1.5v4.256a2.132 2.132 0 0 0 1.084 1.848v6.186c0 .453.366.82.818.82H8.3v-5.72a4.11 4.11 0 0 1-1.362-3.041ZM5.789 9.645a3.21 3.21 0 0 0 3.207-3.207A3.21 3.21 0 0 0 5.789 3.23 3.21 3.21 0 0 0 2.58 6.438 3.21 3.21 0 0 0 5.79 9.645ZM16.813 9.279H11.03a2.45 2.45 0 0 0-1.735.72 2.449 2.449 0 0 0-.72 1.736v5.349a2.469 2.469 0 0 0 1.362 2.197v7.9c0 .452.366.819.818.819h6.334a.819.819 0 0 0 .819-.819v-7.9a2.466 2.466 0 0 0 1.361-2.197v-5.35c0-.676-.275-1.29-.72-1.735a2.449 2.449 0 0 0-1.736-.72ZM13.92 7.641a3.825 3.825 0 0 0 3.821-3.82A3.825 3.825 0 0 0 13.921 0 3.825 3.825 0 0 0 10.1 3.82a3.825 3.825 0 0 0 3.82 3.821ZM25.964 11.235a2.115 2.115 0 0 0-1.5-.622h-3.716c.103.36.159.736.159 1.122v5.349a4.11 4.11 0 0 1-1.362 3.041v5.713a.848.848 0 0 0 .099.006h5.04a.819.819 0 0 0 .819-.819V18.84a2.133 2.133 0 0 0 1.083-1.848v-4.256c0-.585-.238-1.116-.622-1.5ZM22.163 9.645a3.21 3.21 0 0 0 3.207-3.207 3.21 3.21 0 0 0-3.207-3.208 3.211 3.211 0 0 0-3.208 3.208 3.211 3.211 0 0 0 3.208 3.207Z" fill="#262626"/></svg>