<svg width="32" height="32" fill="none" xmlns="http://www.w3.org/2000/svg"><g clip-path="url(#a)" fill="#262626"><path d="M16 32a4.694 4.694 0 0 0 4.295-2.813h-8.59A4.694 4.694 0 0 0 16 32ZM25.687 15.491v-2.053c0-4.364-2.9-8.063-6.875-9.271V2.813A2.816 2.816 0 0 0 16 0a2.816 2.816 0 0 0-2.813 2.813v1.354c-3.974 1.208-6.875 4.907-6.875 9.27v2.054a14.72 14.72 0 0 1-4.114 10.235.937.937 0 0 0 .677 1.587h26.25a.938.938 0 0 0 .677-1.587 14.72 14.72 0 0 1-4.115-10.235Zm-8.75-11.695a9.764 9.764 0 0 0-1.875 0v-.983a.939.939 0 0 1 1.875 0v.982ZM28.188 13.438a.938.938 0 0 0 1.875 0 13.97 13.97 0 0 0-4.12-9.944.938.938 0 0 0-1.325 1.326 12.108 12.108 0 0 1 3.57 8.618ZM2.875 14.375c.518 0 .938-.42.938-.938 0-3.255 1.267-6.315 3.57-8.617a.937.937 0 1 0-1.327-1.326 13.97 13.97 0 0 0-4.119 9.944c0 .517.42.937.938.937Z"/></g><defs><clipPath id="a"><path fill="#fff" d="M0 0h32v32H0z"/></clipPath></defs></svg>