<svg width="256" height="256" viewBox="0 0 256 256" fill="none" xmlns="http://www.w3.org/2000/svg">
<path d="M128 58.368C113.664 58.368 101.376 70.656 101.376 84.992C101.376 99.328 113.664 111.616 128 111.616C143.36 111.616 154.624 99.328 154.624 84.992C154.624 70.656 143.36 58.368 128 58.368Z" fill="#262626"/>
<path d="M210.944 19.456H45.056C28.672 19.456 15.36 32.768 15.36 49.152V163.84L7.16801 200.704L5.12001 209.92C4.09601 216.064 5.12001 223.232 9.21601 228.352C12.288 232.448 17.408 235.52 23.552 236.544C24.576 236.544 25.6 236.544 26.624 236.544H229.376C230.4 236.544 231.424 236.544 232.448 236.544C237.568 235.52 242.688 233.472 246.784 228.352C249.856 224.256 251.904 220.16 251.904 215.04C251.904 214.016 251.904 211.968 251.904 209.92L249.856 200.704L239.616 163.84V49.152C239.616 32.768 227.328 19.456 210.944 19.456ZM220.16 155.648H185.344C181.248 141.312 173.056 129.024 161.792 120.832C158.72 118.784 155.648 118.784 152.576 119.808C145.408 123.904 137.216 126.976 129.024 126.976C120.832 126.976 112.64 124.928 105.472 119.808C102.4 117.76 98.304 118.784 96.256 120.832C84.992 129.024 75.776 141.312 72.704 155.648H35.84V49.152C35.84 44.032 39.936 39.936 45.056 39.936H210.944C216.064 39.936 220.16 44.032 220.16 49.152V155.648Z" fill="#262626"/>
</svg>
