<svg width="32" height="32" fill="none" xmlns="http://www.w3.org/2000/svg"><path d="m.689 21.48 2.91 5.04c.346.6 1.068.872 1.725.65l4.28-1.448c.379.25.771.476 1.175.68l.886 4.429c.136.68.733 1.169 1.426 1.169h5.818c.693 0 1.29-.49 1.426-1.17l.886-4.429c.404-.203.796-.43 1.174-.68l4.281 1.449c.657.222 1.38-.05 1.726-.65l2.909-5.04c.347-.6.221-1.361-.3-1.82l-3.394-2.983a11.713 11.713 0 0 0 0-1.354l3.394-2.984c.521-.457.646-1.22.3-1.82L28.4 5.481a1.454 1.454 0 0 0-1.725-.65l-4.28 1.447c-.379-.25-.771-.476-1.175-.68l-.886-4.429A1.455 1.455 0 0 0 18.91 0h-5.818c-.693 0-1.29.49-1.426 1.17l-.886 4.429c-.404.203-.796.43-1.174.68L5.324 4.83a1.455 1.455 0 0 0-1.726.65L.69 10.52c-.347.6-.221 1.362.3 1.82l3.394 2.983a11.797 11.797 0 0 0 0 1.354L.988 19.661a1.455 1.455 0 0 0-.299 1.82ZM16 10.183A5.825 5.825 0 0 1 21.818 16 5.825 5.825 0 0 1 16 21.818 5.825 5.825 0 0 1 10.182 16 5.825 5.825 0 0 1 16 10.182Z" fill="#262626"/></svg>