<svg width="16" height="16" fill="none" xmlns="http://www.w3.org/2000/svg"><g clip-path="url(#a)" fill="#D9D9D9"><path d="M15.912 7.727c-.143-.2-3.547-4.883-7.88-4.883C3.697 2.844.23 7.528.087 7.727a.467.467 0 0 0 0 .546c.143.2 3.61 4.883 7.943 4.883 4.334 0 7.738-4.683 7.881-4.883a.467.467 0 0 0 0-.546Zm-7.88 3.554c-1.81 0-3.344-1.472-3.344-3.281 0-1.81 1.534-3.281 3.343-3.281A3.285 3.285 0 0 1 11.313 8a3.285 3.285 0 0 1-3.282 3.281Z"/><path d="M8.031 6.594c-.775 0-1.469.63-1.469 1.406 0 .776.694 1.406 1.47 1.406.775 0 1.405-.63 1.405-1.406 0-.775-.63-1.406-1.406-1.406Z"/></g><defs><clipPath id="a"><path fill="#fff" d="M0 0h16v16H0z"/></clipPath></defs></svg>