<svg width="16" height="16" fill="none" xmlns="http://www.w3.org/2000/svg"><path d="M10.5 4.375v1.25a2.5 2.5 0 1 1-5 0v-1.25h.477c.857 0 1.64-.484 2.023-1.25a2.261 2.261 0 0 0 2.023 1.25h.477ZM13.625 1.719a1.719 1.719 0 0 0-2.48-1.541 5.005 5.005 0 0 1 1.764 2.936c.434-.312.716-.82.716-1.395Z" fill="#A6A6A6"/><path d="M12.063 4.062A4.063 4.063 0 0 0 7.917.001c-2.218.044-3.98 1.883-3.98 4.1 0 .633.232 1.229.63 1.689a3.47 3.47 0 0 1-.005-.165v-1.25c0-.518.42-.938.938-.938h.477c.505 0 .959-.28 1.184-.731a.938.938 0 0 1 1.678 0c.225.451.679.731 1.184.731h.477c.518 0 .938.42.938.938v1.25c0 .055-.002.11-.005.165a2.58 2.58 0 0 0 .63-1.689v-.039ZM1.097 12.127l-.105-.591a1.094 1.094 0 0 1 2.155-.38l.104.591a1.094 1.094 0 1 1-2.154.38ZM2.07 9.315c.04 0 .08.001.118.003L.93 2.186a.469.469 0 0 0-.923.163L1.265 9.48a2.028 2.028 0 0 1 .806-.166ZM10.875 9.012h-.531v.469A2.346 2.346 0 0 1 8 11.824 2.346 2.346 0 0 1 5.656 9.48v-.47H4.5c-.484 0-.946.099-1.366.275l.066.371c.447.3.77.773.87 1.336l.104.592c.03.172.038.342.025.509H6.75c.438 0 .868.11 1.25.314a2.658 2.658 0 0 1 1.25-.314h5.128a3.532 3.532 0 0 0-3.503-3.082ZM15.531 14.438h-.5V13.5a.469.469 0 0 0-.469-.469H9.25c-.492 0-.936.208-1.25.541a1.714 1.714 0 0 0-1.25-.54H3.884a2.026 2.026 0 0 1-1.711.937c-.448 0-.866-.146-1.204-.396v.864h-.5a.469.469 0 0 0 0 .938H6.49c.445 0 .863.173 1.178.488a.467.467 0 0 0 .662 0 1.654 1.654 0 0 1 1.178-.488h6.022a.469.469 0 0 0 0-.938Z" fill="#A6A6A6"/><path d="M6.594 8.761v.72c0 .775.63 1.406 1.406 1.406.775 0 1.406-.631 1.406-1.406v-.72a3.418 3.418 0 0 1-2.813 0Z" fill="#A6A6A6"/></svg>