<svg width="24" height="24" fill="none" xmlns="http://www.w3.org/2000/svg"><g clip-path="url(#a)" fill="#A6A6A6"><path d="M1.282 4.945h19.073a.468.468 0 0 0 .439-.633 5.253 5.253 0 0 1 0-3.678.468.468 0 0 0-.439-.634H1.282C.574 0 0 .574 0 1.282v2.382c0 .707.574 1.281 1.282 1.281ZM11.115 6.352v2.854a.705.705 0 0 1-1 .652l-1.29-.602-1.291.602a.704.704 0 0 1-1-.653V6.352H4.457c-.708 0-1.282.573-1.282 1.281v2.382c0 .708.574 1.282 1.282 1.282H23.53a.468.468 0 0 0 .438-.634 5.254 5.254 0 0 1 0-3.678.468.468 0 0 0-.438-.633H11.115Z"/><path d="m9.122 7.843.587.274V6.352h-1.77v1.765l.588-.274a.703.703 0 0 1 .595 0ZM14.878 14.194a.704.704 0 0 1 .595 0l.588.275v-1.766h-1.77v1.766l.587-.274ZM23.531 19.055H4.458c-.708 0-1.282.573-1.282 1.281v2.382c0 .708.574 1.282 1.282 1.282H23.53a.468.468 0 0 0 .438-.634 5.254 5.254 0 0 1 0-3.677.468.468 0 0 0-.438-.634Z"/><path d="M20.355 17.648a.468.468 0 0 0 .439-.633 5.253 5.253 0 0 1 0-3.678.468.468 0 0 0-.439-.634h-2.888v2.855a.705.705 0 0 1-1 .652l-1.291-.602-1.29.602a.706.706 0 0 1-1.001-.654v-2.853H1.282c-.708 0-1.282.574-1.282 1.282v2.382c0 .708.574 1.281 1.282 1.281h19.073Z"/></g><defs><clipPath id="a"><path fill="#fff" d="M0 0h24v24H0z"/></clipPath></defs></svg>