<svg width="24" height="24" fill="none" xmlns="http://www.w3.org/2000/svg"><path d="M1.282 4.945h19.073a.468.468 0 0 0 .439-.633 5.253 5.253 0 0 1 0-3.678.468.468 0 0 0-.439-.634H1.282C.574 0 0 .574 0 1.282v2.382c0 .707.574 1.281 1.282 1.281Z" fill="url(#a)"/><path d="M11.115 6.352v2.854a.705.705 0 0 1-1 .652l-1.29-.602-1.291.602a.704.704 0 0 1-1-.653V6.352H4.457c-.708 0-1.282.573-1.282 1.281v2.382c0 .708.574 1.282 1.282 1.282H23.53a.468.468 0 0 0 .438-.634 5.254 5.254 0 0 1 0-3.678.468.468 0 0 0-.438-.633H11.115Z" fill="url(#b)"/><path d="m9.122 7.843.587.274V6.352h-1.77v1.765l.588-.274a.703.703 0 0 1 .595 0Z" fill="url(#c)"/><path d="M14.878 14.194a.704.704 0 0 1 .595 0l.588.275v-1.766h-1.77v1.766l.587-.274Z" fill="url(#d)"/><path d="M23.531 19.055H4.458c-.708 0-1.282.573-1.282 1.281v2.382c0 .708.574 1.282 1.282 1.282H23.53a.468.468 0 0 0 .438-.634 5.254 5.254 0 0 1 0-3.677.468.468 0 0 0-.438-.634Z" fill="url(#e)"/><path d="M20.355 17.648a.468.468 0 0 0 .439-.633 5.253 5.253 0 0 1 0-3.678.468.468 0 0 0-.439-.634h-2.888v2.855a.705.705 0 0 1-1 .652l-1.291-.602-1.29.602a.706.706 0 0 1-1.001-.654v-2.853H1.282c-.708 0-1.282.574-1.282 1.282v2.382c0 .708.574 1.281 1.282 1.281h19.073Z" fill="url(#f)"/><defs><linearGradient id="a" x1="20.824" y1="4.945" x2="18.601" y2="-4.417" gradientUnits="userSpaceOnUse"><stop stop-color="#FFCB53"/><stop offset=".745" stop-color="#FF7B02"/></linearGradient><linearGradient id="b" x1="24" y1="11.297" x2="21.777" y2="1.934" gradientUnits="userSpaceOnUse"><stop stop-color="#FFCB53"/><stop offset=".745" stop-color="#FF7B02"/></linearGradient><linearGradient id="c" x1="9.709" y1="8.117" x2="7.943" y2="6.348" gradientUnits="userSpaceOnUse"><stop stop-color="#FFCB53"/><stop offset=".745" stop-color="#FF7B02"/></linearGradient><linearGradient id="d" x1="16.061" y1="14.469" x2="14.295" y2="12.699" gradientUnits="userSpaceOnUse"><stop stop-color="#FFCB53"/><stop offset=".745" stop-color="#FF7B02"/></linearGradient><linearGradient id="e" x1="24" y1="24" x2="21.777" y2="14.637" gradientUnits="userSpaceOnUse"><stop stop-color="#FFCB53"/><stop offset=".745" stop-color="#FF7B02"/></linearGradient><linearGradient id="f" x1="20.824" y1="17.648" x2="18.601" y2="8.286" gradientUnits="userSpaceOnUse"><stop stop-color="#FFCB53"/><stop offset=".745" stop-color="#FF7B02"/></linearGradient></defs></svg>