<svg width="24" height="24" fill="none" xmlns="http://www.w3.org/2000/svg"><path d="M15 2.156V.703A.703.703 0 0 0 14.297 0H2.578a.703.703 0 0 0-.703.703v15.469c0 .388.315.703.703.703h1.453V4.265c0-1.162.947-2.109 2.11-2.109H15Z" fill="url(#a)"/><path d="M18.563 5.719V4.266a.703.703 0 0 0-.704-.704H6.141a.703.703 0 0 0-.704.704v15.468c0 .389.315.703.704.703h1.453V7.829c0-1.163.946-2.11 2.11-2.11h8.858Z" fill="url(#b)"/><path d="M19.078 23.933a3.753 3.753 0 0 0 2.98-2.98h-2.98v2.98Z" fill="url(#c)"/><path d="M21.422 7.125H9.703A.703.703 0 0 0 9 7.828v15.469c0 .388.315.703.703.703h7.969v-3.75c0-.388.315-.703.703-.703h3.75V7.828a.703.703 0 0 0-.703-.703Z" fill="url(#d)"/><defs><linearGradient id="a" x1="15" y1="16.875" x2="-1.356" y2="4.154" gradientUnits="userSpaceOnUse"><stop stop-color="#FFCB53"/><stop offset=".745" stop-color="#FF7B02"/></linearGradient><linearGradient id="b" x1="18.563" y1="20.438" x2="2.207" y2="7.716" gradientUnits="userSpaceOnUse"><stop stop-color="#FFCB53"/><stop offset=".745" stop-color="#FF7B02"/></linearGradient><linearGradient id="c" x1="22.058" y1="23.933" x2="19.078" y2="20.953" gradientUnits="userSpaceOnUse"><stop stop-color="#FFCB53"/><stop offset=".745" stop-color="#FF7B02"/></linearGradient><linearGradient id="d" x1="22.125" y1="24" x2="5.769" y2="11.279" gradientUnits="userSpaceOnUse"><stop stop-color="#FFCB53"/><stop offset=".745" stop-color="#FF7B02"/></linearGradient></defs></svg>