<svg height="512pt" viewBox="-46 0 512 512.001" width="512pt" xmlns="http://www.w3.org/2000/svg"><path d="M404.926 0H79.199c-8.562 0-15.5 6.941-15.5 15.5v17.2h186.887c12.422 0 24.098 4.835 32.879 13.62l90.644 90.645v-.004c8.782 8.781 13.621 20.46 13.621 32.883v278.46h17.2c8.558 0 15.5-6.94 15.5-15.5V15.5C420.426 6.941 413.488 0 404.926 0zm0 0"/><path d="M235.086 169.844V63.699H15.5C6.941 63.7 0 70.637 0 79.2V496.5c0 8.563 6.941 15.5 15.5 15.5h325.73c8.563 0 15.5-6.938 15.5-15.5V185.344H250.586c-8.563 0-15.5-6.942-15.5-15.5zm0 0"/><path d="m347.652 154.344-81.566-81.567v81.567zm0 0"/></svg>