<svg height="512" width="512" xmlns="http://www.w3.org/2000/svg"><path d="M30 196c0-24.813 20.187-45 45-45h260c24.813 0 45 20.187 45 45v15h30v-50c0-22.056-17.944-40-40-40H190v-20c0-22.056-17.944-40-40-40H40C17.944 61 0 78.944 0 101v274.069l30-48.032z"/><path d="M335 181H75c-8.284 0-15 6.716-15 15v83.004l29.257-46.843C97.535 218.91 111.803 211 127.424 211H350v-15c0-8.284-6.716-15-15-15z"/><path d="M395.026 451h-380a15.003 15.003 0 0 1-12.722-22.947l112.424-180a15 15 0 0 1 12.723-7.054h349.543a34.953 34.953 0 0 1 30.818 18.411 34.956 34.956 0 0 1-1.604 35.864l-98.674 149.007A15.001 15.001 0 0 1 395.026 451z"/></svg>