<svg width="24" height="24" fill="none" xmlns="http://www.w3.org/2000/svg"><path d="M5.625 4.922V.412L.412 5.625h4.51a.704.704 0 0 0 .703-.703ZM6.328 19.781a2.11 2.11 0 1 0 0-4.218 2.11 2.11 0 0 0 0 4.218ZM22.36 20.719h-7.032a1.64 1.64 0 0 0-1.64 1.64V24h9.609a.703.703 0 0 0 .703-.703v-.938a1.64 1.64 0 0 0-1.64-1.64Z" fill="#262626"/><path d="m15.954 19.313-.62-6.2c-.099-.99.227-1.98.894-2.718a3.534 3.534 0 0 1 2.053-1.115V.703A.703.703 0 0 0 17.578 0H7.031v4.922c0 1.163-.946 2.11-2.11 2.11H0v16.265c0 .388.315.703.703.703h11.578v-1.64a3.05 3.05 0 0 1 3.047-3.047h.626Zm-6.813-16.5h5.625a.703.703 0 0 1 0 1.406H9.14a.703.703 0 0 1 0-1.407ZM6.328 21.188a3.52 3.52 0 0 1-3.516-3.516 3.52 3.52 0 0 1 3.516-3.516 3.52 3.52 0 0 1 3.516 3.516 3.52 3.52 0 0 1-3.516 3.515Zm7.031-8.532H3.516a.703.703 0 0 1 0-1.406h9.843a.703.703 0 0 1 0 1.406Zm0-2.812H3.516a.703.703 0 0 1 0-1.406h9.843a.703.703 0 0 1 0 1.406Zm1.407-2.813H9.14a.703.703 0 0 1 0-1.406h5.625a.703.703 0 0 1 0 1.406Z" fill="#262626"/><path d="m16.733 12.973.634 6.34h2.953l.634-6.34a2.121 2.121 0 1 0-4.22 0Z" fill="#262626"/></svg>