<svg width="24" height="24" fill="none" xmlns="http://www.w3.org/2000/svg"><g clip-path="url(#a)" fill="#262626"><path d="M23.297 8.904h-1.5a.703.703 0 0 0-.703.703v10.312c0 .389.315.704.703.704h1.5a.703.703 0 0 0 .703-.704V9.607a.703.703 0 0 0-.703-.703ZM13.596 4.466l1.171-2.03a.938.938 0 0 0-.343-1.28l-.812-.469a.937.937 0 0 0-1.28.343L11.16 3.06l2.436 1.406ZM.835 16.467c.402.23.915.08 1.146-.32l5.746-9.953a1.875 1.875 0 0 0-1.558.323L4.178 8.01c-.58.435-1.06.986-1.413 1.62L.21 14.226a1.654 1.654 0 0 0 .618 2.236l.008.004ZM5.004 14.067h3.049l4.84-8.383-2.436-1.406L4.8 14.074c.067-.004.135-.007.203-.007ZM2.27 18.457l-.727 1.26a.704.704 0 0 0-.075.19l-.671 2.837c-.128.543.527.922.933.539l2.122-2c.05-.047.093-.1.127-.16l.575-.996a3.055 3.055 0 0 1-2.283-1.67ZM10.6 20.16H6.158l-.928 1.608a1.64 1.64 0 0 0 2.821-1.139 1.64 1.64 0 0 0 3.282 0v-.107c-.17-.078-.56-.276-.733-.361Z"/><path d="m13.398 7.622-3.721 6.445h1.104a.703.703 0 0 1 0 1.406H5.004a1.64 1.64 0 1 0 0 3.281h5.928l.777.389a9.689 9.689 0 0 0 4.311 1.018c1.234 0 2.51-.243 3.668-.704v-9.14h-1.109l-5.181-2.695Z"/></g><defs><clipPath id="a"><path fill="#fff" d="M0 0h24v24H0z"/></clipPath></defs></svg>