<svg width="24" height="24" fill="none" xmlns="http://www.w3.org/2000/svg"><path d="M0 16.112v2.483c0 .388.315.703.703.703h22.594a.703.703 0 0 0 .703-.703v-2.483H0ZM24 14.706V1.337a.703.703 0 0 0-.703-.703H.703A.703.703 0 0 0 0 1.337v13.369h24ZM16.014 8.26l-5.958 3.44A.703.703 0 0 1 9 11.091v-6.88a.703.703 0 0 1 1.055-.61l5.958 3.441a.703.703 0 0 1 0 1.218ZM9.263 20.704v1.256H9.06a.703.703 0 0 0 0 1.406h5.88a.703.703 0 0 0 0-1.406h-.203v-1.256H9.263Z" fill="#262626"/><path d="m10.407 9.873 3.85-2.222-3.85-2.223v4.445Z" fill="#262626"/></svg>