<svg width="24" height="24" fill="none" xmlns="http://www.w3.org/2000/svg"><path d="M15 2.156V.703A.703.703 0 0 0 14.297 0H2.578a.703.703 0 0 0-.703.703v15.469c0 .388.315.703.703.703h1.453V4.265c0-1.162.947-2.109 2.11-2.109H15Z" fill="#262626"/><path d="M18.563 5.719V4.266a.703.703 0 0 0-.704-.704H6.141a.703.703 0 0 0-.704.704v15.468c0 .389.315.703.704.703h1.453V7.829c0-1.163.946-2.11 2.11-2.11h8.858ZM19.078 23.933a3.753 3.753 0 0 0 2.98-2.98h-2.98v2.98Z" fill="#262626"/><path d="M21.422 7.125H9.703A.703.703 0 0 0 9 7.828v15.469c0 .388.315.703.703.703h7.969v-3.75c0-.388.315-.703.703-.703h3.75V7.828a.703.703 0 0 0-.703-.703Z" fill="#262626"/></svg>