<svg width="24" height="26" viewBox="0 0 24 26" fill="none" xmlns="http://www.w3.org/2000/svg">
<path d="M19.0781 15.1961C18.6732 15.1961 18.2797 15.2466 17.903 15.3409L9.70169 6.98772C9.79436 6.60404 9.84382 6.20328 9.84382 5.79094C9.84382 3.02673 7.63587 0.777832 4.92191 0.777832C4.32835 0.777832 3.74696 0.885254 3.19384 1.09709C2.97015 1.18274 2.80454 1.37825 2.75405 1.61611C2.70357 1.85397 2.77519 2.1017 2.94413 2.27377L4.35915 3.71495L4.16307 5.01786L2.8838 5.21752L1.46883 3.77634C1.29989 3.60428 1.05656 3.53147 0.823124 3.58275C0.589547 3.63412 0.397595 3.80284 0.3135 4.03063C0.105469 4.59399 0 5.18625 0 5.79094C0 8.55511 2.20796 10.804 4.92187 10.804C5.32684 10.804 5.72036 10.7535 6.09711 10.6592L14.2984 19.0122C14.2057 19.396 14.1562 19.7968 14.1562 20.2092C14.1562 22.9734 16.3642 25.2222 19.0781 25.2222C19.6717 25.2222 20.2532 25.1148 20.8063 24.9029C21.03 24.8173 21.1956 24.6217 21.246 24.3839C21.2965 24.146 21.2249 23.8982 21.056 23.7262L19.6409 22.285L19.8369 20.9822L21.1163 20.7825L22.5312 22.2237C22.7001 22.3958 22.9433 22.4688 23.1769 22.4173C23.4105 22.3659 23.6024 22.1972 23.6865 21.9694C23.8945 21.4061 24 20.8138 24 20.2092C24 17.445 21.7921 15.1961 19.0781 15.1961Z" fill="white"/>
<path d="M21.8051 6.68475L23.7942 4.65893C23.926 4.52462 24.0001 4.34249 24.0001 4.15256C24.0001 3.96259 23.926 3.78045 23.7942 3.6462L21.1839 0.987617C20.9093 0.707985 20.4641 0.707985 20.1895 0.987617L18.2006 3.01341L21.8051 6.68475Z" fill="white"/>
<path d="M1.88961 19.9484L0.0587586 24.2196C-0.0569761 24.4896 0.00143017 24.8042 0.205993 25.0126C0.340618 25.1497 0.520477 25.2223 0.703339 25.2223C0.798215 25.2223 0.893931 25.2028 0.984539 25.1624L5.17802 23.2976L1.88961 19.9484Z" fill="white"/>
<path d="M12.9926 8.31659L17.2037 4.02748L20.8077 7.69825L16.5966 11.9874L12.9926 8.31659Z" fill="white"/>
<path d="M2.72388 18.7732L7.39833 14.0122L11.0024 17.683L6.32791 22.444L2.72388 18.7732Z" fill="white"/>
</svg>
