<svg width="20" height="20" viewBox="0 0 20 20" fill="none" xmlns="http://www.w3.org/2000/svg">
<g clip-path="url(#clip0_2514_612)">
<path d="M10.6699 10.6756L18.0842 10.7074C18.4558 10.709 18.7582 10.4091 18.7598 10.0375C18.7614 9.66598 18.4615 9.36347 18.09 9.36189L10.6757 9.33007L10.7075 1.91577C10.7091 1.5442 10.4092 1.24171 10.0376 1.24013C9.66608 1.23855 9.36357 1.53845 9.36199 1.90999L9.33018 9.3243L1.9159 9.29249C1.54434 9.2909 1.24184 9.59081 1.24027 9.96236C1.23867 10.3339 1.5386 10.6364 1.91013 10.638L9.32441 10.6698L9.29258 18.0841C9.29098 18.4556 9.59092 18.7581 9.96245 18.7597C10.334 18.7613 10.6365 18.4614 10.6381 18.0899L10.6699 10.6756Z" fill="#A6A6A6" stroke="#A6A6A6" stroke-width="0.5"/>
</g>
<defs>
<clipPath id="clip0_2514_612">
<rect width="20" height="20" fill="white"/>
</clipPath>
</defs>
</svg>
