<svg width="21" height="21" viewBox="0 0 21 21" fill="none" xmlns="http://www.w3.org/2000/svg">
<path d="M1.48066 0.0451174C0.775195 0.18457 0.176367 0.791602 0.0410156 1.51348C0.0164062 1.64063 0 2.41992 0 3.34688V4.96289H10.5H21V3.34688C21 2.41992 20.9836 1.64063 20.959 1.51348C20.8195 0.775196 20.2248 0.180469 19.4865 0.0410156C19.2117 -0.00820303 1.74727 -0.00820303 1.48066 0.0451174ZM3.36328 2.54297C3.54785 2.6373 3.69141 2.87109 3.69141 3.07617C3.69141 3.1459 3.65449 3.27715 3.60937 3.36328C3.51504 3.54785 3.28125 3.69141 3.07617 3.69141C2.76445 3.69141 2.46094 3.38789 2.46094 3.07617C2.46094 2.8793 2.60449 2.6373 2.78086 2.54707C2.97773 2.44043 3.1623 2.44043 3.36328 2.54297ZM5.82422 2.54297C6.00879 2.6373 6.15234 2.87109 6.15234 3.07617C6.15234 3.38789 5.84883 3.69141 5.53711 3.69141C5.22539 3.69141 4.92188 3.38789 4.92188 3.07617C4.92188 2.8793 5.06543 2.6373 5.2418 2.54707C5.43867 2.44043 5.62324 2.44043 5.82422 2.54297ZM8.28516 2.54297C8.46973 2.6373 8.61328 2.87109 8.61328 3.07617C8.61328 3.38789 8.30976 3.69141 7.99805 3.69141C7.79297 3.69141 7.55918 3.54785 7.46484 3.36328C7.3623 3.1582 7.3623 2.99414 7.46484 2.78906C7.6166 2.48965 7.97344 2.38301 8.28516 2.54297Z" fill="white"/>
<path d="M0 12.7312C0 17.0051 0.0164062 19.343 0.0410156 19.4865C0.180469 20.2248 0.775195 20.8195 1.51348 20.959C1.81699 21.0164 19.183 21.0164 19.4865 20.959C20.2248 20.8195 20.8195 20.2248 20.959 19.4865C20.9836 19.343 21 17.0051 21 12.7312V6.19335H10.5H0V12.7312ZM9.51562 7.54687C9.62226 7.60019 9.7084 7.68632 9.76172 7.79296C9.83965 7.94882 9.84375 8.03085 9.84375 10.541C9.84375 13.0512 9.83965 13.1332 9.76172 13.2891C9.7084 13.3957 9.62226 13.4818 9.51562 13.5352C9.35977 13.6172 9.28184 13.6172 6.15234 13.6172C3.02285 13.6172 2.94492 13.6172 2.78906 13.5352C2.68242 13.4818 2.59629 13.3957 2.54297 13.2891C2.46504 13.1332 2.46094 13.0512 2.46094 10.541C2.46094 8.03085 2.46504 7.94882 2.54297 7.79296C2.59219 7.69453 2.68652 7.60019 2.78086 7.55097C2.92852 7.46894 3.02695 7.46894 6.14414 7.46484C9.28184 7.46484 9.35977 7.46484 9.51562 7.54687ZM18.2109 10.0078C18.3955 10.1021 18.5391 10.3359 18.5391 10.541C18.5391 10.7461 18.3955 10.9799 18.2109 11.0742C18.0551 11.1562 17.9771 11.1562 14.8066 11.1562C11.6361 11.1562 11.5582 11.1562 11.4023 11.0742C11.2178 10.9799 11.0742 10.7461 11.0742 10.541C11.0742 10.3441 11.2178 10.1021 11.3941 10.0119C11.5418 9.92988 11.6402 9.92988 14.7984 9.92578C17.9771 9.92578 18.0551 9.92578 18.2109 10.0078ZM18.2109 12.4687C18.3955 12.5631 18.5391 12.7969 18.5391 13.0019C18.5391 13.207 18.3955 13.4408 18.2109 13.5352C18.0551 13.6172 17.9771 13.6172 14.8066 13.6172C11.6361 13.6172 11.5582 13.6172 11.4023 13.5352C11.2178 13.4408 11.0742 13.207 11.0742 13.0019C11.0742 12.8051 11.2178 12.5631 11.3941 12.4728C11.5418 12.3908 11.6402 12.3908 14.7984 12.3867C17.9771 12.3867 18.0551 12.3867 18.2109 12.4687ZM18.2109 14.9297C18.3955 15.024 18.5391 15.2578 18.5391 15.4629C18.5391 15.668 18.3955 15.9018 18.2109 15.9961C18.051 16.0781 17.9854 16.0781 10.5 16.0781C3.01465 16.0781 2.94902 16.0781 2.78906 15.9961C2.60449 15.9018 2.46094 15.668 2.46094 15.4629C2.46094 15.266 2.60449 15.024 2.78086 14.9338C2.92852 14.8518 3.04746 14.8518 10.4918 14.8477C17.9895 14.8477 18.051 14.8477 18.2109 14.9297ZM18.2109 17.3906C18.3955 17.485 18.5391 17.7187 18.5391 17.9238C18.5391 18.1289 18.3955 18.3627 18.2109 18.457C18.051 18.5391 17.9854 18.5391 10.5 18.5391C3.01465 18.5391 2.94902 18.5391 2.78906 18.457C2.60449 18.3627 2.46094 18.1289 2.46094 17.9238C2.46094 17.7269 2.60449 17.485 2.78086 17.3947C2.92852 17.3127 3.04746 17.3127 10.4918 17.3086C17.9895 17.3086 18.051 17.3086 18.2109 17.3906Z" fill="white"/>
<path d="M3.69141 10.541V12.3867H6.15234H8.61328V10.541V8.69531H6.15234H3.69141V10.541Z" fill="white"/>
</svg>
