<svg width="20" height="20" viewBox="0 0 20 20" fill="none" xmlns="http://www.w3.org/2000/svg">
<path d="M0.51169 1.55077C0.460908 1.56249 0.335908 1.65233 0.23044 1.7578C0.0859084 1.90624 0.0390334 1.98046 0.0195022 2.11327C0.00778344 2.20702 -2.90568e-05 5.08202 0.00778344 8.49999L0.0195022 14.7148L0.132783 14.875C0.195283 14.9648 0.312471 15.0703 0.406221 15.1172C0.570283 15.1953 0.613252 15.1953 7.5156 15.1953H14.4609L16.6758 16.793C18.1875 17.8867 18.9375 18.4023 19.0468 18.4336C19.4297 18.5351 19.8554 18.2851 19.9609 17.8945C19.9883 17.7891 19.9961 15.2851 19.9922 9.87889L19.9804 2.01171L19.8906 1.8828C19.8398 1.81639 19.7343 1.71093 19.6601 1.64843L19.5195 1.54296L10.0625 1.53905C4.85935 1.53514 0.562471 1.54296 0.51169 1.55077ZM16.582 4.30077C16.7851 4.35936 16.9765 4.56249 17.0117 4.76171C17.0468 4.97264 16.9297 5.23436 16.75 5.34374L16.6133 5.42968H10.0039C2.79294 5.42968 3.27341 5.4453 3.08981 5.21093C2.85544 4.91014 3.0156 4.41014 3.38278 4.29686C3.55856 4.24608 16.3906 4.24999 16.582 4.30077ZM16.582 6.64452C16.7851 6.70311 16.9765 6.90624 17.0117 7.10546C17.0468 7.31639 16.9297 7.57811 16.75 7.68749L16.6133 7.77343H10.0039C2.79294 7.77343 3.27341 7.78905 3.08981 7.55468C2.85544 7.25389 3.0156 6.75389 3.38278 6.64061C3.55856 6.58983 16.3906 6.59374 16.582 6.64452ZM16.707 9.03124C17.0937 9.24218 17.1133 9.80858 16.7461 10.0351L16.6133 10.1172H10.0039C2.79294 10.1172 3.27341 10.1328 3.08981 9.89843C2.85544 9.59764 3.0156 9.09764 3.38278 8.98436C3.44528 8.96483 6.40622 8.95311 10.039 8.95702C16.1679 8.96483 16.5898 8.96874 16.707 9.03124ZM7.19138 11.3984C7.55466 11.6211 7.54685 12.1601 7.17966 12.3828C7.05466 12.457 6.97653 12.4609 5.24216 12.4609C3.28122 12.4609 3.30466 12.4648 3.12888 12.2422C2.8945 11.9414 3.05466 11.4414 3.42185 11.3281C3.48435 11.3086 4.3281 11.2969 5.29294 11.3008C7.04685 11.3086 7.05075 11.3086 7.19138 11.3984Z" fill="white"/>
</svg>
