<svg width="20" height="20" viewBox="0 0 20 20" fill="none" xmlns="http://www.w3.org/2000/svg">
<path d="M6.20312 0.0820293C6.11328 0.128904 6.02344 0.218748 5.97656 0.312498C5.90234 0.457029 5.89844 0.539061 5.89844 1.99219V3.51562H7.44141C9.03906 3.51562 9.23828 3.53125 9.57031 3.68359C9.80078 3.79297 14.668 7.44141 14.8359 7.63281C15 7.82422 15.1758 8.17187 15.2305 8.42969C15.2617 8.57422 15.2734 9.64453 15.2734 11.9531V15.2734H16.2109C17.0781 15.2734 17.1641 15.2656 17.3047 15.1953C17.4062 15.1445 17.4883 15.0625 17.5391 14.9609C17.6172 14.8086 17.6172 14.7422 17.6172 9.74609V4.6875H14.918H12.2188L12.0625 4.60156C11.9688 4.54687 11.875 4.45312 11.832 4.36719C11.7617 4.23047 11.7578 4.10547 11.7578 2.10937V-1.90735e-06H9.05469C6.4375 0.00390434 6.34375 0.00781059 6.20312 0.0820293Z" fill="white"/>
<path d="M12.9297 1.91016V3.51562H15.0664C16.8828 3.51562 17.1953 3.50781 17.1484 3.46094C17.0859 3.40234 13.0586 0.386719 12.9805 0.335938C12.9414 0.3125 12.9297 0.640625 12.9297 1.91016Z" fill="white"/>
<path d="M2.6875 4.76953C2.59766 4.81641 2.50781 4.90625 2.46094 5C2.38281 5.15234 2.38281 5.21875 2.38281 12.3438C2.38281 19.4727 2.38281 19.5352 2.46094 19.6875C2.51172 19.7891 2.59375 19.8711 2.69531 19.9219C2.84766 20 2.91406 20 8.24219 20C13.5703 20 13.6367 20 13.7891 19.9219C13.8906 19.8711 13.9727 19.7891 14.0234 19.6875C14.1016 19.5352 14.1016 19.4688 14.1016 14.4531V9.375H11.4023H8.70312L8.54688 9.28906C8.45312 9.23438 8.35938 9.14062 8.31641 9.05469C8.24609 8.91797 8.24219 8.79297 8.24219 6.79688V4.6875H5.53906C2.92188 4.69141 2.82812 4.69531 2.6875 4.76953Z" fill="white"/>
<path d="M9.41406 6.59766V8.20312H11.5508C13.3672 8.20312 13.6797 8.19531 13.6328 8.14844C13.5703 8.08984 9.54297 5.07422 9.46484 5.02344C9.42578 5 9.41406 5.32812 9.41406 6.59766Z" fill="white"/>
</svg>
