<svg width="20" height="20" fill="none" xmlns="http://www.w3.org/2000/svg"><path d="M9.357 16.097a.913.913 0 0 0 .067.06l.031.024.04.03.04.023.036.022.042.02c.013.006.025.013.039.018.013.006.027.01.04.015l.044.015.041.01.045.012.048.007.04.006a.927.927 0 0 0 .18 0l.04-.006.047-.007.046-.011.04-.01.045-.016.04-.015.04-.018.04-.02.037-.022c.014-.008.027-.015.04-.024l.039-.028.032-.025a.937.937 0 0 0 .064-.057l.003-.003 4.242-4.242a.91.91 0 0 0-1.285-1.286l-2.691 2.69V.91a.91.91 0 0 0-1.818 0v12.35L6.4 10.57a.91.91 0 0 0-1.286 1.286l4.242 4.242ZM19.09 18.182H.91A.91.91 0 0 0 .91 20h18.18a.91.91 0 1 0 0-1.818Z" fill="#fff"/></svg>