<svg width="20" height="20" viewBox="0 0 20 20" fill="none" xmlns="http://www.w3.org/2000/svg">
<g clip-path="url(#clip0_2419_596)">
<path d="M11.4887 10.0001L19.6917 1.79701C20.1028 1.38592 20.1028 0.719435 19.6917 0.308381C19.2806 -0.102712 18.6141 -0.102712 18.2031 0.308381L9.99998 8.51142L1.79695 0.308381C1.38586 -0.102712 0.719374 -0.102712 0.30832 0.308381C-0.102734 0.719474 -0.102773 1.38596 0.30832 1.79701L8.51135 10.0001L0.30832 18.2031C-0.102773 18.6142 -0.102773 19.2807 0.30832 19.6917C0.719413 20.1028 1.3859 20.1028 1.79695 19.6917L9.99998 11.4887L18.203 19.6917C18.6141 20.1028 19.2806 20.1028 19.6916 19.6917C20.1027 19.2806 20.1027 18.6141 19.6916 18.2031L11.4887 10.0001Z" fill="#FF7B02"/>
</g>
<defs>
<clipPath id="clip0_2419_596">
<rect width="20" height="20" fill="white"/>
</clipPath>
</defs>
</svg>
