<svg width="20" height="20" fill="none" xmlns="http://www.w3.org/2000/svg"><path d="M15.078 10.625H4.922a.587.587 0 0 0-.586.586V20h11.328v-8.79a.587.587 0 0 0-.586-.585Zm-1.172 7.91H6.094a.586.586 0 0 1 0-1.172h7.812a.586.586 0 1 1 0 1.172Zm0-2.637H6.094a.586.586 0 1 1 0-1.171h7.812a.586.586 0 1 1 0 1.171Zm0-2.636H6.094a.586.586 0 1 1 0-1.172h7.812a.586.586 0 0 1 0 1.172ZM7.266 5.469h5.468a.587.587 0 0 0 .586-.586V0h-1.406v1.758a.586.586 0 0 1-1.172 0V0H6.68v4.883c0 .323.263.586.586.586Z" fill="#fff"/><path d="M19.008 4.86 14.492.342v4.54a1.76 1.76 0 0 1-1.758 1.758H7.266a1.76 1.76 0 0 1-1.758-1.758V0h-2.93A1.76 1.76 0 0 0 .82 1.758v16.484c0 .97.789 1.758 1.758 1.758h.586v-8.79c0-.968.789-1.757 1.758-1.757h10.156c.97 0 1.758.789 1.758 1.758V20h.586a1.76 1.76 0 0 0 1.758-1.758V5.273a.585.585 0 0 0-.172-.414Z" fill="#fff"/></svg>