<svg width="20" height="20" fill="none" xmlns="http://www.w3.org/2000/svg"><path d="M19.593 3.364a1.44 1.44 0 0 0-2.033-.028L6.97 13.644 2.454 9.127a1.428 1.428 0 0 0-1.017-.42c-.384 0-.745.149-1.017.42a1.44 1.44 0 0 0 0 2.034l5.52 5.519c.015.015.03.03.048.045l.005.004a1.09 1.09 0 0 0 .103.085l.01.008a1.089 1.089 0 0 0 .111.073l.01.006a1.04 1.04 0 0 0 .118.063l.01.005a1.06 1.06 0 0 0 .125.05l.009.003a.98.98 0 0 0 .132.038l.006.002h-.002a.89.89 0 0 0 .055.012c.035.007.066.011.09.014a1.436 1.436 0 0 0 .513-.025l.003-.001a1.206 1.206 0 0 0 .132-.038l.007-.002a1.129 1.129 0 0 0 .122-.05l.01-.004a1.132 1.132 0 0 0 .116-.06l.01-.005a1.15 1.15 0 0 0 .11-.071l.01-.008a1.179 1.179 0 0 0 .101-.081l.006-.005a.959.959 0 0 0 .049-.044L19.565 5.397c.275-.268.43-.627.435-1.01a1.426 1.426 0 0 0-.407-1.023Z" fill="#A6A6A6"/></svg>