<svg width="512" height="512" viewBox="0 0 512 512" fill="none" xmlns="http://www.w3.org/2000/svg">
<g clip-path="url(#clip0_3846_229)">
<path d="M288 224C288 241.664 273.664 256 256 256C238.336 256 224 241.664 224 224C224 206.336 238.336 192 256 192C273.664 192 288 206.336 288 224ZM362.667 192C345.003 192 330.667 206.336 330.667 224C330.667 241.664 345.003 256 362.667 256C380.331 256 394.667 241.664 394.667 224C394.667 206.336 380.331 192 362.667 192ZM149.333 192C131.669 192 117.333 206.336 117.333 224C117.333 241.664 131.669 256 149.333 256C166.997 256 181.333 241.664 181.333 224C181.333 206.336 166.997 192 149.333 192ZM512 85.3333V341.333C512 388.395 473.728 426.667 426.667 426.667H365.824L283.733 494.507C276.032 501.376 266.155 504.832 256.171 504.832C246.016 504.832 235.797 501.248 227.648 494.016L147.669 426.667H85.3119C38.2505 426.667 -0.0214844 388.395 -0.0214844 341.333V85.3333C-0.000151038 38.272 38.2719 0 85.3332 0H426.667C473.728 0 512 38.272 512 85.3333ZM469.333 85.3333C469.333 61.8027 450.197 42.6667 426.667 42.6667H85.3332C61.8025 42.6667 42.6665 61.8027 42.6665 85.3333V341.333C42.6665 364.864 61.8025 384 85.3332 384H155.477C160.491 384 165.376 385.771 169.237 389.013L255.595 461.76L344.576 388.885C348.395 385.728 353.195 384 358.165 384H426.688C450.219 384 469.355 364.864 469.355 341.333L469.333 85.3333Z" fill="#A6A6A6"/>
</g>
<defs>
<clipPath id="clip0_3846_229">
<rect width="512" height="512" fill="white"/>
</clipPath>
</defs>
</svg>
