<svg width="16" height="16" fill="none" xmlns="http://www.w3.org/2000/svg"><g clip-path="url(#a)"><path fill-rule="evenodd" clip-rule="evenodd" d="M4.07 4.07C1.752 5.473.183 7.594.088 7.727a.467.467 0 0 0 0 .546c.143.2 3.61 4.883 7.943 4.883 1.436 0 2.77-.514 3.916-1.209l-1.612-1.612a3.27 3.27 0 0 1-2.304.946C6.222 11.281 4.688 9.81 4.688 8c0-.905.383-1.725.993-2.319l-1.61-1.61Zm7.211 4.383A3.285 3.285 0 0 0 7.579 4.75L6.002 3.174a6.638 6.638 0 0 1 2.03-.33c4.333 0 7.737 4.684 7.88 4.883a.467.467 0 0 1 0 .546c-.07.099-.941 1.297-2.329 2.482l-2.302-2.302Z" fill="#D9D9D9"/><path fill-rule="evenodd" clip-rule="evenodd" d="M7.006 7.006c-.27.255-.444.606-.444.994 0 .776.694 1.406 1.47 1.406.379 0 .724-.151.977-.397L7.006 7.006Z" fill="#D9D9D9"/><path stroke="#D9D9D9" stroke-width="2" stroke-linecap="round" d="m1.414 2 12.728 12.728"/></g><defs><clipPath id="a"><path fill="#fff" d="M0 0h16v16H0z"/></clipPath></defs></svg>