<svg width="512" height="512" viewBox="0 0 512 512" fill="none" xmlns="http://www.w3.org/2000/svg">
<g clip-path="url(#clip0_3515_2085)">
<path d="M192.001 117.333C192.001 99.6267 206.294 85.3333 224.001 85.3333C241.707 85.3333 256.001 99.6267 256.001 117.333C256.001 135.04 241.707 149.333 224.001 149.333C206.294 149.333 192.001 135.04 192.001 117.333ZM512.001 106.667V234.667C512.001 293.547 464.214 341.333 405.334 341.333H213.334C154.454 341.333 106.667 293.547 106.667 234.667V106.667C106.667 47.7867 154.454 0 213.334 0H405.334C464.214 0 512.001 47.7867 512.001 106.667ZM149.334 234.667C149.334 251.093 155.521 266.027 165.761 277.547L277.547 165.76C298.454 144.853 334.934 144.853 355.841 165.76L378.027 187.947C382.934 192.853 391.254 192.853 396.161 187.947L469.334 114.773V106.667C469.334 71.4667 440.534 42.6667 405.334 42.6667H213.334C178.134 42.6667 149.334 71.4667 149.334 106.667V234.667ZM469.334 234.667V175.147L426.241 218.24C405.334 239.147 368.854 239.147 347.947 218.24L325.761 196.053C320.854 191.147 312.747 191.147 307.627 196.053L205.441 298.24C208.001 298.667 210.561 298.667 213.334 298.667H405.334C440.534 298.667 469.334 269.867 469.334 234.667ZM385.921 384.853C374.614 381.653 362.881 388.48 359.681 399.787L353.494 422.4C349.014 438.827 338.347 452.693 323.414 461.013C308.481 469.547 291.201 471.68 274.774 467.2L89.6008 416.427C55.4675 407.04 35.4141 371.84 44.8008 337.707L65.2808 261.76C68.2675 250.453 61.6541 238.72 50.3475 235.52C39.0408 232.533 27.3075 239.147 24.1075 250.453L3.84079 326.187C-11.7325 382.933 21.7608 441.813 78.5075 457.387L263.681 508.16C273.067 510.72 282.667 512 292.054 512C310.401 512 328.321 507.307 344.747 497.92C369.494 483.84 387.201 461.013 394.881 433.493L401.067 410.88C404.267 399.573 397.441 387.84 386.134 384.64L385.921 384.853Z" fill="#FF7B02"/>
</g>
<defs>
<clipPath id="clip0_3515_2085">
<rect width="512" height="512" fill="white"/>
</clipPath>
</defs>
</svg>
