<svg width="512" height="512" viewBox="0 0 512 512" fill="none" xmlns="http://www.w3.org/2000/svg">
<g clip-path="url(#clip0_3515_2108)">
<path d="M255.999 128C239.122 128 222.624 133.005 208.591 142.381C194.558 151.758 183.62 165.085 177.162 180.678C170.703 196.27 169.013 213.428 172.306 229.981C175.598 246.534 183.726 261.739 195.66 273.673C207.594 285.607 222.799 293.734 239.352 297.027C255.905 300.32 273.062 298.63 288.655 292.171C304.248 285.712 317.575 274.775 326.951 260.742C336.328 246.709 341.333 230.211 341.333 213.333C341.333 190.702 332.342 168.997 316.339 152.994C300.336 136.99 278.631 128 255.999 128ZM255.999 256C247.561 256 239.312 253.498 232.295 248.809C225.279 244.121 219.81 237.457 216.581 229.661C213.351 221.865 212.506 213.286 214.153 205.009C215.799 196.733 219.862 189.13 225.83 183.163C231.797 177.196 239.399 173.133 247.676 171.486C255.952 169.84 264.531 170.685 272.327 173.914C280.124 177.144 286.787 182.613 291.475 189.629C296.164 196.646 298.666 204.895 298.666 213.333C298.666 224.649 294.171 235.502 286.169 243.503C278.168 251.505 267.315 256 255.999 256Z" fill="#FF7B02"/>
<path d="M256.001 512C238.037 512.092 220.312 507.878 204.312 499.713C188.311 491.547 174.499 479.667 164.033 465.066C82.7315 352.917 41.4941 268.608 41.4941 214.464C41.4941 157.573 64.0939 103.012 104.322 62.7846C144.549 22.5568 199.11 -0.0429687 256.001 -0.0429688C312.892 -0.0429687 367.452 22.5568 407.68 62.7846C447.908 103.012 470.508 157.573 470.508 214.464C470.508 268.608 429.27 352.917 347.969 465.066C337.503 479.667 323.691 491.547 307.69 499.713C291.689 507.878 273.965 512.092 256.001 512ZM256.001 46.5277C211.466 46.5785 168.769 64.2925 137.278 95.7836C105.787 127.275 88.073 169.971 88.0221 214.506C88.0221 257.386 128.406 336.682 201.707 437.781C207.93 446.352 216.094 453.328 225.531 458.139C234.967 462.949 245.409 465.457 256.001 465.457C266.593 465.457 277.034 462.949 286.471 458.139C295.908 453.328 304.071 446.352 310.294 437.781C383.595 336.682 423.979 257.386 423.979 214.506C423.929 169.971 406.215 127.275 374.724 95.7836C343.232 64.2925 300.536 46.5785 256.001 46.5277Z" fill="#FF7B02"/>
</g>
<defs>
<clipPath id="clip0_3515_2108">
<rect width="512" height="512" fill="white"/>
</clipPath>
</defs>
</svg>
