<svg width="512" height="512" viewBox="0 0 512 512" fill="none" xmlns="http://www.w3.org/2000/svg">
<g clip-path="url(#clip0_3515_2116)">
<path d="M448 85.3333H381.867C376.916 61.2568 363.815 39.6234 344.774 24.0793C325.732 8.53525 301.914 0.0310299 277.334 0L234.667 0C210.087 0.0310299 186.268 8.53525 167.227 24.0793C148.186 39.6234 135.085 61.2568 130.134 85.3333H64.0003C58.3424 85.3333 52.9162 87.581 48.9154 91.5817C44.9146 95.5825 42.667 101.009 42.667 106.667C42.667 112.325 44.9146 117.751 48.9154 121.752C52.9162 125.752 58.3424 128 64.0003 128H85.3337V405.333C85.3675 433.613 96.6165 460.724 116.613 480.721C136.61 500.717 163.721 511.966 192 512H320C348.28 511.966 375.391 500.717 395.388 480.721C415.384 460.724 426.633 433.613 426.667 405.333V128H448C453.658 128 459.085 125.752 463.085 121.752C467.086 117.751 469.334 112.325 469.334 106.667C469.334 101.009 467.086 95.5825 463.085 91.5817C459.085 87.581 453.658 85.3333 448 85.3333ZM234.667 42.6667H277.334C290.566 42.6828 303.47 46.792 314.275 54.4308C325.08 62.0696 333.257 72.8638 337.686 85.3333H174.315C178.743 72.8638 186.921 62.0696 197.726 54.4308C208.531 46.792 221.434 42.6828 234.667 42.6667ZM384 405.333C384 422.307 377.258 438.586 365.255 450.588C353.253 462.591 336.974 469.333 320 469.333H192C175.026 469.333 158.748 462.591 146.745 450.588C134.743 438.586 128 422.307 128 405.333V128H384V405.333Z" fill="#FF7B02"/>
<path d="M213.333 384C218.991 384 224.417 381.752 228.418 377.751C232.419 373.751 234.667 368.324 234.667 362.666V234.666C234.667 229.008 232.419 223.582 228.418 219.581C224.417 215.581 218.991 213.333 213.333 213.333C207.675 213.333 202.249 215.581 198.248 219.581C194.248 223.582 192 229.008 192 234.666V362.666C192 368.324 194.248 373.751 198.248 377.751C202.249 381.752 207.675 384 213.333 384Z" fill="#FF7B02"/>
<path d="M298.666 384C304.324 384 309.751 381.752 313.751 377.751C317.752 373.751 320 368.324 320 362.666V234.666C320 229.008 317.752 223.582 313.751 219.581C309.751 215.581 304.324 213.333 298.666 213.333C293.008 213.333 287.582 215.581 283.581 219.581C279.581 223.582 277.333 229.008 277.333 234.666V362.666C277.333 368.324 279.581 373.751 283.581 377.751C287.582 381.752 293.008 384 298.666 384Z" fill="#FF7B02"/>
</g>
<defs>
<clipPath id="clip0_3515_2116">
<rect width="512" height="512" fill="white"/>
</clipPath>
</defs>
</svg>
