<svg width="16" height="16" fill="none" xmlns="http://www.w3.org/2000/svg"><path d="m.345 10.74 1.454 2.52c.173.3.535.436.863.325l2.14-.724c.19.125.386.238.587.34l.443 2.214c.068.34.367.585.714.585h2.909a.727.727 0 0 0 .713-.585l.443-2.214c.202-.102.398-.215.587-.34l2.14.724a.727.727 0 0 0 .863-.325l1.455-2.52a.727.727 0 0 0-.15-.91L13.808 8.34a5.903 5.903 0 0 0 0-.678l1.698-1.491a.727.727 0 0 0 .15-.91L14.2 2.74a.727.727 0 0 0-.863-.325l-2.14.724a5.8 5.8 0 0 0-.587-.34L10.168.585A.727.727 0 0 0 9.455 0h-2.91a.727.727 0 0 0-.713.585L5.39 2.799a5.82 5.82 0 0 0-.587.34l-2.14-.724a.727.727 0 0 0-.863.325L.345 5.26c-.174.3-.111.68.15.91L2.191 7.66a5.896 5.896 0 0 0 0 .678L.494 9.83a.727.727 0 0 0-.15.91ZM8 5.09A2.912 2.912 0 0 1 10.91 8 2.912 2.912 0 0 1 8 10.91 2.912 2.912 0 0 1 5.091 8a2.912 2.912 0 0 1 2.91-2.91Z" fill="#1153FC"/></svg>