<svg width="32" height="32" fill="none" xmlns="http://www.w3.org/2000/svg"><g clip-path="url(#a)" fill="#fff"><path d="M22.74 19.207a3.991 3.991 0 0 1 5.68-3.608V5.487a.937.937 0 0 0-.937-.937H4.417a.937.937 0 0 0-.938.937V15.6a3.992 3.992 0 0 1 5.535 4.674h3.094a3.992 3.992 0 0 1 3.842-5.052c2.2 0 3.988 1.788 3.988 3.986 0 .37-.051.726-.146 1.066h3.093a3.97 3.97 0 0 1-.146-1.066Zm-2.974-9.258c0 .518-.42.938-.938.938h-5.756a.938.938 0 0 1 0-1.875h5.756c.518 0 .938.42.938.937ZM8.44 14.262a.937.937 0 1 1 0-1.875h15.018a.938.938 0 0 1 0 1.875H8.441ZM5.172 23.193a3.972 3.972 0 0 1-2.618-.983A4.114 4.114 0 0 0-.05 26.032v.522a.94.94 0 0 0 .938.937h.001l8.57-.012a.937.937 0 0 0 .935-.94l-.001-.508a4.114 4.114 0 0 0-2.604-3.82 3.973 3.973 0 0 1-2.617.982ZM15.95 23.193a3.972 3.972 0 0 1-2.618-.983 4.114 4.114 0 0 0-2.604 3.822v.522a.937.937 0 0 0 .938.937l8.57-.012a.938.938 0 0 0 .936-.94l-.001-.508a4.114 4.114 0 0 0-2.604-3.82 3.973 3.973 0 0 1-2.617.982ZM31.948 26.031a4.114 4.114 0 0 0-2.603-3.82 3.971 3.971 0 0 1-2.617.982 3.972 3.972 0 0 1-2.618-.983 4.114 4.114 0 0 0-2.604 3.822v.522a.938.938 0 0 0 .938.937h.001l8.569-.012a.937.937 0 0 0 .936-.94l-.002-.508Z"/><path d="M18.078 19.207a2.128 2.128 0 1 1-4.256 0 2.128 2.128 0 0 1 4.256 0ZM28.828 19.207a2.128 2.128 0 1 1-4.257 0 2.128 2.128 0 0 1 4.256 0ZM7.3 19.207a2.129 2.129 0 1 1-4.256 0 2.129 2.129 0 0 1 4.257 0Z"/></g><defs><clipPath id="a"><path fill="#fff" d="M0 0h32v32H0z"/></clipPath></defs></svg>