<svg width="32" height="32" fill="none" xmlns="http://www.w3.org/2000/svg"><g clip-path="url(#a)" fill="#fff"><path d="m16.432 11.356-.432-.63-.432.63a.938.938 0 0 1-.508.369l-.733.216.466.605c.132.171.2.382.194.598l-.02.763.719-.256a.938.938 0 0 1 .628 0l.72.256-.021-.763a.937.937 0 0 1 .194-.598l.466-.605-.733-.216a.938.938 0 0 1-.508-.37Z"/><path d="M16 5.929c-3.619 0-6.563 2.937-6.563 6.547s2.944 6.547 6.563 6.547c3.619 0 6.563-2.937 6.563-6.547S19.619 5.929 16 5.929ZM19.993 12l-1.097 1.425.05 1.798a.938.938 0 0 1-1.251.91L16 15.53l-1.694.602a.937.937 0 0 1-1.252-.909l.05-1.798L12.007 12a.937.937 0 0 1 .478-1.47l1.725-.51 1.017-1.483a.938.938 0 0 1 1.546 0l1.017 1.484 1.725.508A.937.937 0 0 1 19.993 12ZM12.563 25.233l-.147.028c-.424.08-.947.178-1.524.178-.767 0-1.467-.18-2.08-.534-1.364-.787-1.838-2.148-2.122-2.961l-.044-.127-.129-.044-.105-.037-1.876 6.985a.938.938 0 0 0 1.265 1.109l4.068-1.687 2.677 3.49a.938.938 0 0 0 1.65-.327l1.214-4.524c-1.276-.194-2.184-.977-2.757-1.471l-.09-.078ZM25.588 21.736l-.105.037-.13.044-.043.127c-.284.813-.758 2.174-2.121 2.961-.614.355-1.314.534-2.081.534-.576 0-1.1-.098-1.52-.178l-.151-.028-.09.078c-.573.494-1.48 1.277-2.757 1.471l1.215 4.524a.938.938 0 0 0 1.649.327l2.677-3.49 4.068 1.687a.938.938 0 0 0 1.264-1.11l-1.875-6.984Z"/><path d="M18.912 23.324c.216-.057.644.023 1.022.095.735.138 1.568.295 2.317-.137.76-.439 1.053-1.28 1.288-1.955.124-.357.265-.761.415-.91.15-.15.556-.291.914-.416.677-.235 1.519-.527 1.958-1.285.434-.75.27-1.618.138-2.315-.071-.377-.152-.803-.095-1.018.052-.192.338-.522.568-.788.474-.546 1.063-1.226 1.063-2.12 0-.892-.59-1.572-1.063-2.119-.23-.265-.517-.596-.568-.787-.057-.215.023-.642.095-1.018.132-.698.296-1.566-.138-2.316-.44-.758-1.282-1.05-1.958-1.285-.358-.124-.763-.265-.914-.415-.15-.15-.29-.554-.415-.91-.236-.676-.529-1.517-1.288-1.955-.75-.433-1.582-.276-2.317-.137-.378.071-.806.152-1.022.094-.193-.051-.51-.325-.79-.567C17.573.588 16.892 0 16 0c-.893 0-1.574.588-2.121 1.06-.28.242-.598.516-.79.567-.217.058-.645-.023-1.023-.094-.735-.139-1.568-.296-2.317.137-.76.438-1.053 1.28-1.288 1.955-.124.356-.265.76-.415.91-.15.15-.556.291-.914.415-.676.235-1.518.527-1.958 1.285-.434.75-.27 1.618-.138 2.316.071.376.152.803.095 1.018-.051.191-.338.522-.568.787-.473.547-1.063 1.227-1.063 2.12s.59 1.573 1.063 2.12c.23.265.517.595.568.787.057.215-.024.641-.095 1.018-.132.697-.296 1.566.138 2.315.44.758 1.282 1.05 1.958 1.285.358.124.764.265.914.415.15.15.29.554.415.91.236.676.529 1.517 1.288 1.956.75.432 1.582.275 2.317.137.378-.072.806-.153 1.022-.095.193.052.51.326.79.567.548.473 1.229 1.06 2.122 1.06.893 0 1.574-.587 2.121-1.06.28-.241.598-.515.79-.567ZM7.562 12.476c0-4.644 3.785-8.422 8.438-8.422 4.652 0 8.438 3.778 8.438 8.422S20.652 20.898 16 20.898c-4.652 0-8.438-3.778-8.438-8.422Z"/></g><defs><clipPath id="a"><path fill="#fff" d="M0 0h32v32H0z"/></clipPath></defs></svg>