<svg width="32" height="32" fill="none" xmlns="http://www.w3.org/2000/svg"><path d="M15.675 26.9a8.703 8.703 0 0 1-4.582-1.298v.713L12.643 32h6.716l1.548-5.685v-.713a8.704 8.704 0 0 1-4.581 1.298h-.652ZM23.228 9.812c-1.304.048-4.011.316-5.63 1.66a2.5 2.5 0 0 1-3.222-.027c-1.717-1.477-4.135-1.697-5.424-1.697-.06 0-.12 0-.18.002v8.344c0 3.828 3.09 6.93 6.902 6.93h.652c3.811 0 6.902-3.102 6.902-6.93V9.812Z" fill="#A6A6A6"/><path d="M3.299 1.875H7.68v5.388c0 .357.299.642.655.624 1.41-.068 4.803.02 7.263 2.137.23.197.57.2.802.007 2.274-1.89 5.862-2.1 7.297-2.104.345 0 .623-.28.623-.625V1.875h3.444v3.3a.938.938 0 0 0 1.875 0V.938A.937.937 0 0 0 28.7 0H3.3a.938.938 0 0 0 0 1.875ZM9.218 25.9c-.962.3-2.24.721-3.532 1.205-1.518.57-2.736 1.109-3.62 1.604C1.104 29.248 0 30.002 0 31.063c0 .517.42.937.938.937H10.7l-1.482-5.434V25.9ZM29.934 28.709c-.884-.495-2.102-1.035-3.62-1.604a69.339 69.339 0 0 0-3.532-1.206v.667L21.302 32h9.76c.518 0 .938-.42.938-.938 0-1.06-1.104-1.814-2.066-2.353ZM4.277 14.719a2.668 2.668 0 0 0 2.62 2.667v-5.334a2.668 2.668 0 0 0-2.62 2.666ZM25.103 17.386a2.668 2.668 0 0 0 0-5.334v5.334Z" fill="#A6A6A6"/></svg>