<svg width="24" height="24" viewBox="0 0 24 24" fill="none" xmlns="http://www.w3.org/2000/svg">
<g clip-path="url(#clip0_466_3578)">
<path d="M23.5969 10.729L12.8289 0.917216C12.3563 0.486482 11.6435 0.486529 11.1711 0.917169L0.403033 10.729C0.0244239 11.074 -0.100638 11.6056 0.0843301 12.0832C0.269345 12.5608 0.719814 12.8694 1.23202 12.8694H2.95186V22.7C2.95186 23.0898 3.26789 23.4058 3.65765 23.4058H9.55987C9.94963 23.4058 10.2657 23.0898 10.2657 22.7V16.7312H13.7345V22.7001C13.7345 23.0898 14.0505 23.4059 14.4403 23.4059H20.3422C20.732 23.4059 21.048 23.0899 21.048 22.7001V12.8694H22.7682C23.2803 12.8694 23.7309 12.5608 23.9159 12.0832C24.1006 11.6055 23.9755 11.074 23.5969 10.729Z" fill="#D9D9D9"/>
<path d="M20.8636 2.00296H16.1237L21.5694 6.95463V2.70871C21.5694 2.31894 21.2535 2.00296 20.8636 2.00296Z" fill="#D9D9D9"/>
</g>
<defs>
<clipPath id="clip0_466_3578">
<rect width="24" height="24" fill="white"/>
</clipPath>
</defs>
</svg>
