<svg width="32" height="32" fill="none" xmlns="http://www.w3.org/2000/svg"><path d="M16 23.563a5.063 5.063 0 1 0 0-10.126 5.063 5.063 0 0 0 0 10.126ZM23.394 5.688 23.07 4.07a1.88 1.88 0 0 0-1.839-1.508H10.77A1.88 1.88 0 0 0 8.93 4.07l-.324 1.617h14.788Z" fill="#1153FC"/><path d="M29.188 7.563H2.813A2.816 2.816 0 0 0 0 10.374v16.25a2.816 2.816 0 0 0 2.813 2.813h26.375A2.816 2.816 0 0 0 32 26.625v-16.25a2.816 2.816 0 0 0-2.813-2.813ZM8 13.438H5a.938.938 0 0 1 0-1.876h3a.938.938 0 0 1 0 1.876Zm8 12A6.945 6.945 0 0 1 9.062 18.5 6.945 6.945 0 0 1 16 11.562a6.945 6.945 0 0 1 6.938 6.938A6.945 6.945 0 0 1 16 25.438Z" fill="#1153FC"/></svg>