<svg width="32" height="32" viewBox="0 0 32 32" fill="none" xmlns="http://www.w3.org/2000/svg">
<path d="M16 23.5625C18.7959 23.5625 21.0625 21.2959 21.0625 18.5C21.0625 15.7041 18.7959 13.4375 16 13.4375C13.2041 13.4375 10.9375 15.7041 10.9375 18.5C10.9375 21.2959 13.2041 23.5625 16 23.5625Z" fill="#F1F3F5"/>
<path d="M23.3936 5.6875L23.07 4.06981C22.8954 3.19644 22.1221 2.5625 21.2314 2.5625H10.7686C9.87794 2.5625 9.10463 3.19644 8.93001 4.06981L8.60645 5.6875H23.3936Z" fill="#F1F3F5"/>
<path d="M29.1875 7.5625C26.9861 7.5625 3.84275 7.5625 2.8125 7.5625C1.26169 7.5625 0 8.82419 0 10.375V26.625C0 28.1758 1.26169 29.4375 2.8125 29.4375H29.1875C30.7383 29.4375 32 28.1758 32 26.625V10.375C32 8.82419 30.7383 7.5625 29.1875 7.5625ZM8 13.4375H5C4.48225 13.4375 4.0625 13.0177 4.0625 12.5C4.0625 11.9823 4.48225 11.5625 5 11.5625H8C8.51775 11.5625 8.9375 11.9823 8.9375 12.5C8.9375 13.0177 8.51775 13.4375 8 13.4375ZM16 25.4375C12.1746 25.4375 9.0625 22.3254 9.0625 18.5C9.0625 14.6746 12.1746 11.5625 16 11.5625C19.8254 11.5625 22.9375 14.6746 22.9375 18.5C22.9375 22.3254 19.8254 25.4375 16 25.4375Z" fill="#F1F3F5"/>
</svg>
