<svg width="24" height="24" fill="none" xmlns="http://www.w3.org/2000/svg"><path d="M24 12c0 6.627-5.373 12-12 12S0 18.627 0 12 5.373 0 12 0s12 5.373 12 12Z" fill="#F1F3F5"/><path d="M12.93 14.398h-2.242c0-.458.03-.861.093-1.21a3.05 3.05 0 0 1 .344-.954 3.05 3.05 0 0 1 .656-.78c.245-.204.456-.4.633-.587.177-.187.313-.377.406-.57.094-.193.14-.399.14-.617 0-.271-.038-.492-.116-.664a.76.76 0 0 0-.336-.383 1.054 1.054 0 0 0-.555-.133c-.182 0-.354.044-.515.133a.988.988 0 0 0-.383.414c-.1.182-.154.424-.164.726H8.242c.016-.776.188-1.406.516-1.89.333-.49.776-.847 1.328-1.07.557-.23 1.18-.344 1.867-.344.76 0 1.414.117 1.961.351.547.235.966.584 1.258 1.047.291.459.437 1.024.437 1.696 0 .447-.086.838-.257 1.171a3.631 3.631 0 0 1-.68.922c-.281.281-.597.584-.945.906-.303.266-.508.537-.618.813-.109.27-.169.612-.18 1.023Zm-2.563 2.375c0-.375.136-.687.406-.937.271-.255.623-.383 1.055-.383.432 0 .784.128 1.055.383.27.25.406.562.406.937s-.135.69-.406.946c-.271.25-.623.375-1.055.375-.432 0-.784-.125-1.055-.375a1.248 1.248 0 0 1-.406-.946Z" fill="#fff"/></svg>