<svg width="32" height="32" fill="none" xmlns="http://www.w3.org/2000/svg"><g clip-path="url(#a)" fill="#fff"><path d="M4.848 23.174.823 27.2A2.811 2.811 0 1 0 4.8 31.176l4.025-4.025-3.977-3.977ZM20.75 0C14.545 0 9.5 5.046 9.5 11.25c0 2.765 1.006 5.296 2.667 7.257l-1.855 1.855-.663-.663a.937.937 0 0 0-1.326 0l-2.15 2.15 3.978 3.977 2.15-2.15a.937.937 0 0 0 0-1.326l-.663-.663 1.854-1.855A11.194 11.194 0 0 0 20.75 22.5C26.953 22.5 32 17.453 32 11.25 32 5.046 26.953 0 20.75 0Zm0 18.75c-4.136 0-7.5-3.365-7.5-7.5s3.364-7.5 7.5-7.5c4.135 0 7.5 3.365 7.5 7.5s-3.365 7.5-7.5 7.5Z"/></g><defs><clipPath id="a"><path fill="#fff" d="M0 0h32v32H0z"/></clipPath></defs></svg>