<svg width="40" height="40" fill="none" xmlns="http://www.w3.org/2000/svg"><path d="M27.273 12.727H3.636v14.546h23.637V12.727Z" fill="#fff"/><path d="M38.182 16.364v-3.637a3.636 3.636 0 0 0-3.637-3.636H3.636A3.636 3.636 0 0 0 0 12.727v14.546a3.636 3.636 0 0 0 3.636 3.636h30.91a3.636 3.636 0 0 0 3.636-3.636v-3.637A1.818 1.818 0 0 0 40 21.818v-3.636a1.818 1.818 0 0 0-1.818-1.818Zm-1.818 1.818v9.09a1.818 1.818 0 0 1-1.819 1.819H3.636a1.818 1.818 0 0 1-1.818-1.818V12.727c0-1.004.814-1.818 1.818-1.818h30.91c1.004 0 1.818.814 1.818 1.818v5.455Z" fill="#fff"/></svg>