<svg width="24" height="24" fill="none" xmlns="http://www.w3.org/2000/svg"><path d="M12 7.125a4.927 4.927 0 0 0-4.922 4.922A4.927 4.927 0 0 0 12 16.969a4.927 4.927 0 0 0 4.922-4.922A4.927 4.927 0 0 0 12 7.125Zm0 0a4.927 4.927 0 0 0-4.922 4.922A4.927 4.927 0 0 0 12 16.969a4.927 4.927 0 0 0 4.922-4.922A4.927 4.927 0 0 0 12 7.125ZM20.484 0H3.516A3.517 3.517 0 0 0 0 3.516v16.968A3.517 3.517 0 0 0 3.516 24h16.968A3.517 3.517 0 0 0 24 20.484V3.516A3.517 3.517 0 0 0 20.484 0ZM12 18.375a6.338 6.338 0 0 1-6.328-6.328A6.338 6.338 0 0 1 12 5.719a6.338 6.338 0 0 1 6.328 6.328A6.338 6.338 0 0 1 12 18.375Zm7.734-12.656a1.41 1.41 0 0 1-1.406-1.407 1.41 1.41 0 0 1 1.406-1.406 1.41 1.41 0 0 1 1.407 1.406 1.41 1.41 0 0 1-1.407 1.407ZM12 7.125a4.927 4.927 0 0 0-4.922 4.922A4.927 4.927 0 0 0 12 16.969a4.927 4.927 0 0 0 4.922-4.922A4.927 4.927 0 0 0 12 7.125Zm0 0a4.927 4.927 0 0 0-4.922 4.922A4.927 4.927 0 0 0 12 16.969a4.927 4.927 0 0 0 4.922-4.922A4.927 4.927 0 0 0 12 7.125Zm0 0a4.927 4.927 0 0 0-4.922 4.922A4.927 4.927 0 0 0 12 16.969a4.927 4.927 0 0 0 4.922-4.922A4.927 4.927 0 0 0 12 7.125Z" fill="#fff"/></svg>