<svg width="20" height="20" fill="none" xmlns="http://www.w3.org/2000/svg"><path d="M10 5.938a4.106 4.106 0 0 0-4.102 4.101A4.106 4.106 0 0 0 10 14.141a4.106 4.106 0 0 0 4.102-4.102A4.106 4.106 0 0 0 10 5.938Zm0 0a4.106 4.106 0 0 0-4.102 4.101A4.106 4.106 0 0 0 10 14.141a4.106 4.106 0 0 0 4.102-4.102A4.106 4.106 0 0 0 10 5.938ZM17.07 0H2.93A2.93 2.93 0 0 0 0 2.93v14.14A2.93 2.93 0 0 0 2.93 20h14.14A2.93 2.93 0 0 0 20 17.07V2.93A2.93 2.93 0 0 0 17.07 0ZM10 15.313a5.281 5.281 0 0 1-5.273-5.274A5.281 5.281 0 0 1 10 4.766a5.281 5.281 0 0 1 5.273 5.273A5.281 5.281 0 0 1 10 15.313Zm6.445-10.547a1.175 1.175 0 0 1-1.172-1.172c0-.645.528-1.172 1.172-1.172.645 0 1.172.527 1.172 1.172 0 .644-.527 1.172-1.172 1.172ZM10 5.937a4.106 4.106 0 0 0-4.102 4.102A4.106 4.106 0 0 0 10 14.141a4.106 4.106 0 0 0 4.102-4.102A4.106 4.106 0 0 0 10 5.938Zm0 0a4.106 4.106 0 0 0-4.102 4.102A4.106 4.106 0 0 0 10 14.141a4.106 4.106 0 0 0 4.102-4.102A4.106 4.106 0 0 0 10 5.938Zm0 0a4.106 4.106 0 0 0-4.102 4.102A4.106 4.106 0 0 0 10 14.141a4.106 4.106 0 0 0 4.102-4.102A4.106 4.106 0 0 0 10 5.938Z" fill="#D9D9D9"/></svg>