<svg width="24" height="24" fill="none" xmlns="http://www.w3.org/2000/svg"><g clip-path="url(#a)" fill="#fff"><path d="M23.53 1.966a1.45 1.45 0 0 0-1.432-.307L.995 8.615c-.575.19-.965.703-.993 1.308a1.439 1.439 0 0 0 .866 1.395l4.238 1.854 12.477-6.924a.705.705 0 0 1 .85 1.103l-7.777 8.133-1.596 5.763 3.83-2.866 4.527 3.704a1.44 1.44 0 0 0 1.382.251c.477-.161.83-.55.945-1.04l4.218-17.93a1.45 1.45 0 0 0-.432-1.4Z"/><path d="m6.21 14.172 1.465 6.796 1.67-6.03a.704.704 0 0 1 .17-.3l4.688-4.903-7.993 4.437Z"/></g><defs><clipPath id="a"><path fill="#fff" d="M0 0h24v24H0z"/></clipPath></defs></svg>