<svg width="20" height="20" fill="none" xmlns="http://www.w3.org/2000/svg"><g clip-path="url(#a)" fill="#D9D9D9"><path d="M19.608 1.639a1.209 1.209 0 0 0-1.193-.257L.829 7.18c-.479.158-.804.586-.828 1.09-.023.504.26.96.722 1.163l3.532 1.545 10.397-5.77a.587.587 0 0 1 .71.919L8.88 12.903l-1.33 4.803 3.191-2.389 3.773 3.087a1.2 1.2 0 0 0 1.152.21 1.2 1.2 0 0 0 .788-.867l3.514-14.942c.1-.425-.038-.872-.36-1.166Z"/><path d="m5.175 11.81 1.22 5.663 1.392-5.025a.587.587 0 0 1 .142-.25l3.907-4.085-6.661 3.697Z"/></g><defs><clipPath id="a"><path fill="#fff" d="M0 0h20v20H0z"/></clipPath></defs></svg>