<svg width="24" height="24" fill="none" xmlns="http://www.w3.org/2000/svg"><g clip-path="url(#a)"><path fill-rule="evenodd" clip-rule="evenodd" d="M20.655 13.845c.796.777 1.637 1.508 2.35 2.364.316.38.615.773.843 1.214.324.627.03 1.318-.532 1.355l-3.496-.002c-.902.075-1.621-.288-2.226-.904-.484-.493-.933-1.018-1.398-1.528a3.316 3.316 0 0 0-.63-.56c-.476-.309-.89-.214-1.164.284-.277.506-.34 1.067-.368 1.63-.037.824-.286 1.04-1.113 1.078-1.767.084-3.445-.184-5.003-1.075-1.374-.786-2.44-1.896-3.366-3.152-1.806-2.446-3.188-5.134-4.43-7.897-.28-.623-.076-.957.611-.969 1.14-.022 2.281-.02 3.423-.002.464.007.77.273.95.711.617 1.518 1.372 2.961 2.32 4.3.252.356.51.712.876.963.405.277.714.185.905-.266.12-.287.174-.595.201-.902.09-1.055.102-2.109-.056-3.16-.097-.657-.467-1.082-1.122-1.206-.334-.063-.284-.188-.123-.378.281-.33.546-.534 1.073-.534h3.951c.622.123.76.402.845 1.028l.004 4.39c-.007.242.12.96.557 1.121.35.114.58-.165.79-.387.946-1.004 1.62-2.19 2.224-3.42.268-.54.498-1.1.721-1.661.165-.416.425-.621.893-.612l3.803.003c.113 0 .227.002.336.02.641.11.817.386.619 1.011-.312.982-.919 1.8-1.512 2.622-.634.878-1.313 1.726-1.941 2.608-.578.806-.532 1.213.185 1.913Z" fill="#fff"/></g><defs><clipPath id="a"><path fill="#fff" d="M0 0h24v24H0z"/></clipPath></defs></svg>