<svg width="24" height="24" viewBox="0 0 24 24" fill="none" xmlns="http://www.w3.org/2000/svg">
<g clip-path="url(#clip0_558_1106)">
<path d="M13.1835 4.81067H10.8164C10.729 4.81067 10.6726 4.85628 10.6466 4.88342C10.6208 4.91061 10.578 4.96925 10.5823 5.05653L10.9592 12.7487C10.9653 12.8737 11.0681 12.9716 11.1933 12.9716H12.8066C12.9318 12.9716 13.0346 12.8737 13.0407 12.7487L13.4176 5.05653C13.4219 4.96925 13.3792 4.91061 13.3533 4.88342C13.3274 4.85628 13.2709 4.81067 13.1835 4.81067Z" fill="white"/>
<path d="M11.9999 17.1969C11.4506 17.1969 11.0037 17.6438 11.0037 18.1931C11.0037 18.7425 11.4506 19.1894 11.9999 19.1894C12.5492 19.1894 12.9961 18.7425 12.9961 18.1931C12.9961 17.6438 12.5492 17.1969 11.9999 17.1969Z" fill="white"/>
<path d="M23.794 6.8235L17.1765 0.205969C17.0446 0.0740625 16.8658 0 16.6793 0H7.3207C7.13419 0 6.95536 0.0740625 6.82355 0.205969L0.205969 6.8235C0.0740625 6.95536 0 7.13419 0 7.3207V16.6793C0 16.8658 0.0740625 17.0446 0.205969 17.1765L6.82355 23.794C6.95541 23.9259 7.13423 24 7.3207 24H16.6793C16.8658 24 17.0446 23.9259 17.1765 23.794L23.794 17.1765C23.9259 17.0446 24 16.8658 24 16.6793V7.3207C24 7.13419 23.9259 6.95536 23.794 6.8235ZM12 20.5956C10.6753 20.5956 9.59752 19.5179 9.59752 18.1931C9.59752 16.8683 10.6753 15.7906 12 15.7906C13.3247 15.7906 14.4025 16.8683 14.4025 18.1931C14.4025 19.5179 13.3247 20.5956 12 20.5956ZM14.8223 5.12536L14.4454 12.8175C14.4024 13.6925 13.6827 14.3778 12.8067 14.3778H11.1933C10.3173 14.3778 9.59756 13.6925 9.55462 12.8175L9.17775 5.12536C9.15591 4.67902 9.32011 4.23736 9.62827 3.91364C9.93642 3.59002 10.3695 3.40439 10.8165 3.40439H13.1835C13.6305 3.40439 14.0635 3.59002 14.3717 3.91364C14.6799 4.23731 14.8441 4.67897 14.8223 5.12536Z" fill="white"/>
</g>
<defs>
<clipPath id="clip0_558_1106">
<rect width="24" height="24" fill="white"/>
</clipPath>
</defs>
</svg>
