<svg width="24" height="24" viewBox="0 0 24 24" fill="none" xmlns="http://www.w3.org/2000/svg">
<path d="M17.5865 15.2504C17.3722 15.1359 17.2383 14.9126 17.2383 14.6693V14.0101H12.624C12.2598 14.0101 11.9648 13.7152 11.9648 13.3509V10.7142C11.9648 10.3499 12.2598 10.055 12.624 10.055H17.2383V9.39583C17.2383 9.15235 17.3722 8.92905 17.5865 8.81452C17.8004 8.70053 18.061 8.71344 18.2633 8.84734L22.2184 11.4841C22.4018 11.6063 22.5118 11.8123 22.5118 12.0325C22.5118 12.2525 22.4018 12.4585 22.2184 12.5809L18.2633 15.2176C18.0588 15.354 17.798 15.3639 17.5865 15.2504Z" fill="#262626"/>
<path d="M15.9199 1.39783V8.73667H12.624C12.3868 8.73667 12.1758 8.77608 11.9648 8.85518V5.35289C11.9648 4.61447 11.5561 3.94225 10.8707 3.58629L5.18848 0.738647H15.2607C15.63 0.738647 15.9199 1.02855 15.9199 1.39783Z" fill="#262626"/>
<path d="M12.624 15.3285H15.9199V19.9426C15.9199 20.3119 15.63 20.6018 15.2607 20.6018H11.9648V15.2098C12.1758 15.2889 12.3869 15.3285 12.624 15.3285Z" fill="#262626"/>
<path d="M10.2774 4.75968L2.36718 0.804611C2.16957 0.712189 1.91894 0.712189 1.73437 0.830979C1.53676 0.962677 1.41797 1.17361 1.41797 1.39787V19.9426C1.41797 20.2328 1.60254 20.4833 1.86635 20.5624L9.77647 23.1991C9.97065 23.2768 10.2192 23.2329 10.3696 23.12C10.5411 22.9882 10.6466 22.7904 10.6466 22.5796V5.35294C10.6464 5.10245 10.5016 4.8782 10.2774 4.75968ZM8.00974 13.351C8.00974 13.72 7.71984 14.0101 7.35056 14.0101C6.98156 14.0101 6.69138 13.72 6.69138 13.351V10.7143C6.69138 10.3451 6.98156 10.0551 7.35056 10.0551C7.71984 10.0551 8.00974 10.3451 8.00974 10.7143V13.351Z" fill="#262626"/>
</svg>
