<svg width="24" height="24" viewBox="0 0 24 24" fill="none" xmlns="http://www.w3.org/2000/svg">
<g clip-path="url(#clip0_558_1098)">
<path d="M23.5969 10.7289L12.8289 0.917155C12.3563 0.486421 11.6435 0.486468 11.1711 0.917108L0.403033 10.729C0.0244239 11.074 -0.100638 11.6055 0.0843301 12.0831C0.269345 12.5607 0.719814 12.8693 1.23202 12.8693H2.95186V22.7C2.95186 23.0897 3.26789 23.4058 3.65765 23.4058H9.55986C9.94963 23.4058 10.2657 23.0898 10.2657 22.7V16.7311H13.7345V22.7C13.7345 23.0898 14.0505 23.4058 14.4403 23.4058H20.3422C20.732 23.4058 21.048 23.0898 21.048 22.7V12.8693H22.7682C23.2803 12.8693 23.7309 12.5607 23.9159 12.0831C24.1006 11.6055 23.9755 11.074 23.5969 10.7289Z" fill="white"/>
<path d="M20.8637 2.00293H16.1238L21.5695 6.9546V2.70868C21.5695 2.31891 21.2535 2.00293 20.8637 2.00293Z" fill="white"/>
</g>
<defs>
<clipPath id="clip0_558_1098">
<rect width="24" height="24" fill="white"/>
</clipPath>
</defs>
</svg>
