<svg width="512" height="512" viewBox="0 0 512 512" fill="none" xmlns="http://www.w3.org/2000/svg">
<g clip-path="url(#clip0_3515_1918)">
<path d="M487.018 195.669L404.266 112.917C400.243 109.031 394.854 106.881 389.26 106.93C383.667 106.978 378.316 109.222 374.361 113.177C370.405 117.132 368.162 122.483 368.113 128.077C368.065 133.67 370.215 139.059 374.101 143.083L456.853 225.835C459.312 228.342 461.46 231.135 463.253 234.155C462.933 234.155 462.677 233.984 462.357 233.984L127.765 234.667C122.107 234.667 116.681 236.914 112.68 240.915C108.679 244.916 106.432 250.342 106.432 256C106.432 261.658 108.679 267.084 112.68 271.085C116.681 275.086 122.107 277.333 127.765 277.333L462.229 276.651C462.826 276.651 463.317 276.352 463.893 276.309C462.001 279.918 459.601 283.237 456.768 286.165L374.016 368.917C371.978 370.885 370.353 373.239 369.235 375.842C368.117 378.445 367.528 381.244 367.504 384.077C367.479 386.909 368.019 389.718 369.091 392.34C370.164 394.962 371.748 397.344 373.751 399.347C375.754 401.35 378.136 402.934 380.758 404.007C383.38 405.079 386.189 405.619 389.022 405.595C391.854 405.57 394.654 404.981 397.256 403.863C399.859 402.745 402.213 401.12 404.181 399.083L486.933 316.331C502.931 300.328 511.917 278.627 511.917 256C511.917 233.373 502.931 211.672 486.933 195.669H487.018Z" fill="#1153FC"/>
<path d="M149.333 469.333H106.667C89.6928 469.333 73.4142 462.591 61.4118 450.588C49.4095 438.586 42.6667 422.307 42.6667 405.333V106.667C42.6667 89.6928 49.4095 73.4142 61.4118 61.4118C73.4142 49.4095 89.6928 42.6667 106.667 42.6667H149.333C154.991 42.6667 160.417 40.4191 164.418 36.4183C168.419 32.4175 170.667 26.9913 170.667 21.3333C170.667 15.6754 168.419 10.2492 164.418 6.24839C160.417 2.24761 154.991 0 149.333 0L106.667 0C78.3873 0.0338743 51.2759 11.2828 31.2794 31.2794C11.2828 51.2759 0.0338743 78.3873 0 106.667L0 405.333C0.0338743 433.613 11.2828 460.724 31.2794 480.721C51.2759 500.717 78.3873 511.966 106.667 512H149.333C154.991 512 160.417 509.752 164.418 505.752C168.419 501.751 170.667 496.325 170.667 490.667C170.667 485.009 168.419 479.582 164.418 475.582C160.417 471.581 154.991 469.333 149.333 469.333Z" fill="#1153FC"/>
</g>
<defs>
<clipPath id="clip0_3515_1918">
<rect width="512" height="512" fill="white"/>
</clipPath>
</defs>
</svg>
