<svg width="512" height="512" viewBox="0 0 512 512" fill="none" xmlns="http://www.w3.org/2000/svg">
<g clip-path="url(#clip0_3515_1925)">
<path d="M255.999 170.667C239.122 170.667 222.624 175.671 208.591 185.048C194.558 194.424 183.62 207.752 177.162 223.344C170.703 238.937 169.013 256.094 172.306 272.648C175.598 289.201 183.726 304.406 195.66 316.34C207.594 328.274 222.799 336.401 239.352 339.694C255.905 342.986 273.062 341.296 288.655 334.838C304.248 328.379 317.575 317.441 326.951 303.408C336.328 289.375 341.333 272.877 341.333 256C341.333 233.368 332.342 211.663 316.339 195.66C300.336 179.657 278.631 170.667 255.999 170.667ZM255.999 298.667C247.561 298.667 239.312 296.164 232.295 291.476C225.279 286.788 219.81 280.124 216.581 272.328C213.351 264.531 212.506 255.953 214.153 247.676C215.799 239.399 219.862 231.797 225.83 225.83C231.797 219.863 239.399 215.799 247.676 214.153C255.952 212.507 264.531 213.352 272.327 216.581C280.124 219.81 286.787 225.279 291.475 232.296C296.164 239.312 298.666 247.561 298.666 256C298.666 267.316 294.171 278.168 286.169 286.17C278.168 294.171 267.315 298.667 255.999 298.667Z" fill="#1153FC"/>
<path d="M454.273 296.533L444.801 291.072C449.065 267.871 449.065 244.087 444.801 220.885L454.273 215.424C461.557 211.222 467.942 205.626 473.063 198.956C478.185 192.286 481.942 184.673 484.121 176.551C486.3 168.429 486.858 159.957 485.763 151.619C484.668 143.282 481.942 135.241 477.74 127.957C473.537 120.673 467.941 114.288 461.272 109.167C454.602 104.046 446.988 100.288 438.866 98.1091C430.744 95.93 422.273 95.372 413.935 96.4669C405.597 97.5619 397.557 100.288 390.273 104.491L380.78 109.973C362.85 94.6543 342.244 82.7786 320.001 74.944V64C320.001 47.0261 313.258 30.7475 301.256 18.7452C289.253 6.74284 272.975 0 256.001 0C239.027 0 222.748 6.74284 210.746 18.7452C198.744 30.7475 192.001 47.0261 192.001 64V74.944C169.759 82.8068 149.16 94.7115 131.244 110.059L121.708 104.533C106.997 96.0464 89.5173 93.7509 73.1141 98.1517C56.711 102.553 42.7278 113.289 34.2409 128C25.754 142.711 23.4585 160.19 27.8593 176.593C32.2602 192.997 42.9969 206.98 57.7076 215.467L67.1796 220.928C62.9153 244.129 62.9153 267.913 67.1796 291.115L57.7076 296.576C42.9969 305.063 32.2602 319.046 27.8593 335.449C23.4585 351.852 25.754 369.332 34.2409 384.043C42.7278 398.753 56.711 409.49 73.1141 413.891C89.5173 418.292 106.997 415.996 121.708 407.509L131.201 402.027C149.137 417.348 169.75 429.224 192.001 437.056V448C192.001 464.974 198.744 481.253 210.746 493.255C222.748 505.257 239.027 512 256.001 512C272.975 512 289.253 505.257 301.256 493.255C313.258 481.253 320.001 464.974 320.001 448V437.056C342.243 429.193 362.842 417.289 380.758 401.941L390.294 407.445C405.005 415.932 422.485 418.228 438.888 413.827C455.291 409.426 469.274 398.689 477.761 383.979C486.248 369.268 488.543 351.788 484.143 335.385C479.742 318.982 469.005 304.999 454.294 296.512L454.273 296.533ZM399.916 215.979C407.14 242.156 407.14 269.801 399.916 295.979C398.654 300.535 398.942 305.381 400.734 309.756C402.525 314.131 405.719 317.787 409.814 320.149L432.94 333.504C437.842 336.333 441.42 340.994 442.887 346.461C444.353 351.928 443.587 357.753 440.758 362.656C437.929 367.559 433.269 371.137 427.802 372.603C422.335 374.069 416.509 373.304 411.606 370.475L388.438 357.077C384.34 354.704 379.568 353.761 374.875 354.399C370.183 355.036 365.835 357.217 362.518 360.597C343.53 379.982 319.608 393.813 293.334 400.597C288.748 401.776 284.685 404.448 281.784 408.19C278.884 411.933 277.311 416.534 277.313 421.269V448C277.313 453.658 275.065 459.084 271.065 463.085C267.064 467.086 261.638 469.333 255.98 469.333C250.322 469.333 244.895 467.086 240.895 463.085C236.894 459.084 234.646 453.658 234.646 448V421.291C234.649 416.556 233.076 411.954 230.175 408.212C227.274 404.469 223.211 401.798 218.625 400.619C192.35 393.807 168.435 379.946 149.462 360.533C146.145 357.153 141.798 354.972 137.105 354.335C132.412 353.697 127.641 354.64 123.542 357.013L100.417 370.389C97.9898 371.812 95.3052 372.741 92.5177 373.122C89.7302 373.503 86.8948 373.329 84.1749 372.61C81.4549 371.891 78.904 370.641 76.6691 368.932C74.4342 367.223 72.5594 365.089 71.1526 362.652C69.7459 360.216 68.835 357.525 68.4723 354.735C68.1097 351.945 68.3025 349.111 69.0396 346.396C69.7768 343.681 71.0437 341.138 72.7675 338.915C74.4913 336.691 76.6378 334.831 79.0836 333.44L102.209 320.085C106.304 317.723 109.498 314.067 111.29 309.692C113.081 305.317 113.369 300.471 112.108 295.915C104.883 269.737 104.883 242.092 112.108 215.915C113.346 211.368 113.045 206.539 111.25 202.182C109.456 197.825 106.269 194.185 102.188 191.829L79.0623 178.475C74.1596 175.646 70.5816 170.985 69.1153 165.518C67.6491 160.051 68.4146 154.225 71.2436 149.323C74.0726 144.42 78.7332 140.842 84.2003 139.376C89.6673 137.909 95.493 138.675 100.396 141.504L123.564 154.901C127.651 157.28 132.412 158.234 137.1 157.612C141.788 156.99 146.137 154.829 149.462 151.467C168.451 132.082 192.373 118.251 218.646 111.467C223.246 110.284 227.32 107.6 230.222 103.84C233.125 100.08 234.689 95.459 234.668 90.7093V64C234.668 58.342 236.915 52.9158 240.916 48.9151C244.917 44.9143 250.343 42.6667 256.001 42.6667C261.659 42.6667 267.085 44.9143 271.086 48.9151C275.087 52.9158 277.334 58.342 277.334 64V90.7093C277.332 95.4444 278.905 100.046 281.806 103.788C284.706 107.531 288.77 110.202 293.356 111.381C319.638 118.19 343.561 132.051 362.54 151.467C365.856 154.847 370.204 157.028 374.897 157.665C379.59 158.303 384.361 157.36 388.46 154.987L411.585 141.611C414.012 140.188 416.697 139.259 419.484 138.878C422.272 138.497 425.107 138.671 427.827 139.39C430.547 140.109 433.098 141.359 435.333 143.068C437.568 144.777 439.443 146.911 440.849 149.348C442.256 151.784 443.167 154.475 443.53 157.265C443.892 160.055 443.699 162.889 442.962 165.604C442.225 168.319 440.958 170.862 439.234 173.085C437.511 175.309 435.364 177.169 432.918 178.56L409.793 191.915C405.719 194.276 402.541 197.92 400.755 202.276C398.968 206.633 398.673 211.458 399.916 216V215.979Z" fill="#1153FC"/>
</g>
<defs>
<clipPath id="clip0_3515_1925">
<rect width="512" height="512" fill="white"/>
</clipPath>
</defs>
</svg>
