<svg width="512" height="512" viewBox="0 0 512 512" fill="none" xmlns="http://www.w3.org/2000/svg">
<g clip-path="url(#clip0_3515_1946)">
<path d="M405.334 179.712V149.333C405.334 109.728 389.6 71.7442 361.595 43.7387C333.59 15.7333 295.606 0 256 0C216.395 0 178.411 15.7333 150.406 43.7387C122.4 71.7442 106.667 109.728 106.667 149.333V179.712C87.6667 188.004 71.4946 201.654 60.1283 218.991C48.762 236.329 42.6943 256.602 42.667 277.333V405.333C42.7009 433.613 53.9498 460.724 73.9464 480.721C93.9429 500.717 121.054 511.966 149.334 512H362.667C390.946 511.966 418.058 500.717 438.054 480.721C458.051 460.724 469.3 433.613 469.334 405.333V277.333C469.306 256.602 463.239 236.329 451.872 218.991C440.506 201.654 424.334 188.004 405.334 179.712ZM149.334 149.333C149.334 121.044 160.572 93.9125 180.576 73.9086C200.579 53.9047 227.711 42.6667 256 42.6667C284.29 42.6667 311.421 53.9047 331.425 73.9086C351.429 93.9125 362.667 121.044 362.667 149.333V170.667H149.334V149.333ZM426.667 405.333C426.667 422.307 419.924 438.586 407.922 450.588C395.92 462.591 379.641 469.333 362.667 469.333H149.334C132.36 469.333 116.081 462.591 104.079 450.588C92.0765 438.586 85.3337 422.307 85.3337 405.333V277.333C85.3337 260.359 92.0765 244.081 104.079 232.078C116.081 220.076 132.36 213.333 149.334 213.333H362.667C379.641 213.333 395.92 220.076 407.922 232.078C419.924 244.081 426.667 260.359 426.667 277.333V405.333Z" fill="#1153FC"/>
<path d="M256 298.667C250.342 298.667 244.916 300.914 240.915 304.915C236.915 308.916 234.667 314.342 234.667 320V362.667C234.667 368.324 236.915 373.751 240.915 377.751C244.916 381.752 250.342 384 256 384C261.658 384 267.084 381.752 271.085 377.751C275.086 373.751 277.334 368.324 277.334 362.667V320C277.334 314.342 275.086 308.916 271.085 304.915C267.084 300.914 261.658 298.667 256 298.667Z" fill="#1153FC"/>
</g>
<defs>
<clipPath id="clip0_3515_1946">
<rect width="512" height="512" fill="white"/>
</clipPath>
</defs>
</svg>
