<svg width="512" height="512" viewBox="0 0 512 512" fill="none" xmlns="http://www.w3.org/2000/svg">
<g clip-path="url(#clip0_3515_3230)">
<path d="M277.333 43.7547V21.3333C277.333 15.6754 275.085 10.2492 271.084 6.24839C267.083 2.24761 261.657 0 255.999 0C250.341 0 244.915 2.24761 240.914 6.24839C236.913 10.2492 234.666 15.6754 234.666 21.3333V43.7547C191.717 47.6051 150.664 63.2364 116.031 88.9263C81.3976 114.616 54.5278 149.368 38.3818 189.352C22.2358 229.336 17.4404 273.002 24.5239 315.537C31.6073 358.073 50.2947 397.827 78.5272 430.421C67.3777 435.937 58.0606 444.558 51.6981 455.247C45.3355 465.936 42.1989 478.236 42.6659 490.667C42.6659 496.325 44.9135 501.751 48.9143 505.752C52.915 509.752 58.3412 512 63.9992 512C69.6572 512 75.0834 509.752 79.0841 505.752C83.0849 501.751 85.3325 496.325 85.3325 490.667C85.1552 484.091 87.5159 477.7 91.9249 472.818C96.3339 467.936 102.453 464.939 109.013 464.448C110.48 464.169 111.911 463.725 113.279 463.125C154.144 494.82 204.39 512.022 256.106 512.022C307.821 512.022 358.068 494.82 398.933 463.125C400.181 463.701 401.481 464.158 402.815 464.491C409.398 464.94 415.553 467.913 419.997 472.79C424.44 477.667 426.83 484.071 426.666 490.667C426.666 496.325 428.913 501.751 432.914 505.752C436.915 509.752 442.341 512 447.999 512C453.657 512 459.083 509.752 463.084 505.752C467.085 501.751 469.333 496.325 469.333 490.667C469.8 478.236 466.663 465.936 460.3 455.247C453.938 444.558 444.621 435.937 433.471 430.421C461.704 397.827 480.391 358.073 487.474 315.537C494.558 273.002 489.763 229.336 473.617 189.352C457.471 149.368 430.601 114.616 395.967 88.9263C361.334 63.2364 320.281 47.6051 277.333 43.7547ZM63.9992 277.333C63.9992 239.359 75.2598 202.238 96.357 170.664C117.454 139.09 147.441 114.481 182.524 99.9485C217.607 85.4165 256.212 81.6142 293.457 89.0226C330.701 96.4309 364.912 114.717 391.764 141.569C418.615 168.421 436.902 202.632 444.31 239.876C451.718 277.12 447.916 315.725 433.384 350.809C418.852 385.892 394.243 415.878 362.669 436.976C331.094 458.073 293.973 469.333 255.999 469.333C205.097 469.271 156.297 449.023 120.303 413.029C84.3098 377.036 64.0613 328.236 63.9992 277.333Z" fill="#D9D9D9"/>
<path d="M409.919 0.000187196C404.261 0.000187196 398.835 2.2478 394.834 6.24858C390.834 10.2494 388.586 15.6756 388.586 21.3335C388.586 26.9915 390.834 32.4177 394.834 36.4185C398.835 40.4192 404.261 42.6669 409.919 42.6669C417.358 42.1014 424.835 43.0483 431.898 45.4505C438.961 47.8527 445.465 51.6604 451.017 56.6441C456.569 61.6278 461.054 67.6842 464.202 74.4481C467.349 81.2121 469.095 88.5434 469.333 96.0002C469.333 101.658 471.58 107.084 475.581 111.085C479.582 115.086 485.008 117.334 490.666 117.334C496.324 117.334 501.75 115.086 505.751 111.085C509.752 107.084 511.999 101.658 511.999 96.0002C511.726 82.9548 508.854 70.0947 503.552 58.1726C498.249 46.2504 490.622 35.5054 481.117 26.5663C471.611 17.6271 460.419 10.6734 448.194 6.11185C435.969 1.5503 422.957 -0.527437 409.919 0.000187196Z" fill="#D9D9D9"/>
<path d="M42.6667 96.0002C42.9045 88.5434 44.6499 81.2121 47.7977 74.4481C50.9456 67.6842 55.4306 61.6278 60.9824 56.6441C66.5343 51.6604 73.0379 47.8527 80.1011 45.4505C87.1643 43.0483 94.6409 42.1014 102.08 42.6669C107.738 42.6669 113.164 40.4192 117.165 36.4185C121.166 32.4177 123.413 26.9915 123.413 21.3335C123.413 15.6756 121.166 10.2494 117.165 6.24858C113.164 2.2478 107.738 0.000187196 102.08 0.000187196C89.0424 -0.527437 76.0305 1.5503 63.8055 6.11185C51.5805 10.6734 40.388 17.6271 30.8827 26.5663C21.3774 35.5054 13.7503 46.2504 8.44759 58.1726C3.14486 70.0947 0.272987 82.9548 0 96.0002C0 101.658 2.24761 107.084 6.24839 111.085C10.2492 115.086 15.6754 117.334 21.3333 117.334C26.9913 117.334 32.4175 115.086 36.4183 111.085C40.4191 107.084 42.6667 101.658 42.6667 96.0002Z" fill="#D9D9D9"/>
<path d="M277.333 247.168V149.333C277.333 143.675 275.085 138.249 271.084 134.248C267.084 130.248 261.657 128 255.999 128C250.341 128 244.915 130.248 240.914 134.248C236.914 138.249 234.666 143.675 234.666 149.333V256C234.667 261.657 236.916 267.083 240.917 271.083L304.917 335.083C308.94 338.969 314.329 341.119 319.923 341.07C325.516 341.022 330.867 338.778 334.822 334.823C338.778 330.867 341.021 325.517 341.07 319.923C341.118 314.33 338.968 308.941 335.082 304.917L277.333 247.168Z" fill="#D9D9D9"/>
</g>
<defs>
<clipPath id="clip0_3515_3230">
<rect width="512" height="512" fill="white"/>
</clipPath>
</defs>
</svg>
