<svg width="512" height="512" viewBox="0 0 512 512" fill="none" xmlns="http://www.w3.org/2000/svg">
<g clip-path="url(#clip0_3515_3368)">
<path d="M255.999 366.293C241.982 366.318 228.098 363.581 215.14 358.236C202.181 352.892 190.403 345.046 180.479 335.147L6.18606 160.853C2.16892 156.836 -0.0878906 151.388 -0.0878906 145.707C-0.0878906 140.026 2.16892 134.577 6.18606 130.56C10.2032 126.543 15.6516 124.286 21.3327 124.286C27.0138 124.286 32.4623 126.543 36.4794 130.56L210.773 304.853C222.773 316.839 239.039 323.57 255.999 323.57C272.959 323.57 289.226 316.839 301.226 304.853L475.519 130.56C479.537 126.543 484.985 124.286 490.666 124.286C496.347 124.286 501.796 126.543 505.813 130.56C509.83 134.577 512.087 140.026 512.087 145.707C512.087 151.388 509.83 156.836 505.813 160.853L331.519 335.147C321.595 345.046 309.818 352.892 296.859 358.236C283.901 363.581 270.016 366.318 255.999 366.293Z" fill="#D9D9D9"/>
</g>
<defs>
<clipPath id="clip0_3515_3368">
<rect width="512" height="512" fill="white"/>
</clipPath>
</defs>
</svg>
