<svg width="512" height="512" viewBox="0 0 512 512" fill="none" xmlns="http://www.w3.org/2000/svg">
<g clip-path="url(#clip0_3515_3298)">
<path d="M405.333 179.712V149.333C405.333 109.728 389.599 71.7442 361.594 43.7387C333.589 15.7333 295.605 0 255.999 0C216.394 0 178.41 15.7333 150.405 43.7387C122.399 71.7442 106.666 109.728 106.666 149.333V179.712C87.6657 188.004 71.4936 201.654 60.1273 218.991C48.7611 236.329 42.6933 256.602 42.666 277.333V405.333C42.6999 433.613 53.9488 460.724 73.9454 480.721C93.9419 500.717 121.053 511.966 149.333 512H362.666C390.945 511.966 418.057 500.717 438.053 480.721C458.05 460.724 469.299 433.613 469.333 405.333V277.333C469.305 256.602 463.238 236.329 451.871 218.991C440.505 201.654 424.333 188.004 405.333 179.712ZM149.333 149.333C149.333 121.044 160.571 93.9125 180.575 73.9086C200.579 53.9047 227.71 42.6667 255.999 42.6667C284.289 42.6667 311.42 53.9047 331.424 73.9086C351.428 93.9125 362.666 121.044 362.666 149.333V170.667H149.333V149.333ZM426.666 405.333C426.666 422.307 419.923 438.586 407.921 450.588C395.919 462.591 379.64 469.333 362.666 469.333H149.333C132.359 469.333 116.08 462.591 104.078 450.588C92.0755 438.586 85.3327 422.307 85.3327 405.333V277.333C85.3327 260.359 92.0755 244.081 104.078 232.078C116.08 220.076 132.359 213.333 149.333 213.333H362.666C379.64 213.333 395.919 220.076 407.921 232.078C419.923 244.081 426.666 260.359 426.666 277.333V405.333Z" fill="#D9D9D9"/>
<path d="M255.999 298.667C250.341 298.667 244.915 300.914 240.914 304.915C236.914 308.916 234.666 314.342 234.666 320V362.667C234.666 368.324 236.914 373.751 240.914 377.751C244.915 381.752 250.341 384 255.999 384C261.657 384 267.084 381.752 271.084 377.751C275.085 373.751 277.333 368.324 277.333 362.667V320C277.333 314.342 275.085 308.916 271.084 304.915C267.084 300.914 261.657 298.667 255.999 298.667Z" fill="#D9D9D9"/>
</g>
<defs>
<clipPath id="clip0_3515_3298">
<rect width="512" height="512" fill="white"/>
</clipPath>
</defs>
</svg>
