<svg width="512" height="512" viewBox="0 0 512 512" fill="none" xmlns="http://www.w3.org/2000/svg">
<g clip-path="url(#clip0_3515_3318)">
<path d="M447.999 85.3333H381.866C376.915 61.2568 363.814 39.6234 344.773 24.0793C325.731 8.53525 301.913 0.0310299 277.333 0L234.666 0C210.086 0.0310299 186.267 8.53525 167.226 24.0793C148.185 39.6234 135.084 61.2568 130.133 85.3333H63.9993C58.3414 85.3333 52.9152 87.581 48.9144 91.5817C44.9136 95.5825 42.666 101.009 42.666 106.667C42.666 112.325 44.9136 117.751 48.9144 121.752C52.9152 125.752 58.3414 128 63.9993 128H85.3327V405.333C85.3666 433.613 96.6155 460.724 116.612 480.721C136.609 500.717 163.72 511.966 191.999 512H319.999C348.279 511.966 375.39 500.717 395.387 480.721C415.383 460.724 426.632 433.613 426.666 405.333V128H447.999C453.657 128 459.084 125.752 463.084 121.752C467.085 117.751 469.333 112.325 469.333 106.667C469.333 101.009 467.085 95.5825 463.084 91.5817C459.084 87.581 453.657 85.3333 447.999 85.3333ZM234.666 42.6667H277.333C290.565 42.6828 303.469 46.792 314.274 54.4308C325.079 62.0696 333.256 72.8638 337.685 85.3333H174.314C178.742 72.8638 186.92 62.0696 197.725 54.4308C208.53 46.792 221.434 42.6828 234.666 42.6667ZM383.999 405.333C383.999 422.307 377.257 438.586 365.254 450.588C353.252 462.591 336.973 469.333 319.999 469.333H191.999C175.025 469.333 158.747 462.591 146.745 450.588C134.742 438.586 127.999 422.307 127.999 405.333V128H383.999V405.333Z" fill="#D9D9D9"/>
<path d="M213.333 384C218.991 384 224.417 381.753 228.418 377.752C232.419 373.751 234.667 368.325 234.667 362.667V234.667C234.667 229.009 232.419 223.583 228.418 219.582C224.417 215.581 218.991 213.333 213.333 213.333C207.675 213.333 202.249 215.581 198.248 219.582C194.248 223.583 192 229.009 192 234.667V362.667C192 368.325 194.248 373.751 198.248 377.752C202.249 381.753 207.675 384 213.333 384Z" fill="#D9D9D9"/>
<path d="M298.667 384C304.325 384 309.751 381.753 313.752 377.752C317.753 373.751 320.001 368.325 320.001 362.667V234.667C320.001 229.009 317.753 223.583 313.752 219.582C309.751 215.581 304.325 213.333 298.667 213.333C293.009 213.333 287.583 215.581 283.582 219.582C279.582 223.583 277.334 229.009 277.334 234.667V362.667C277.334 368.325 279.582 373.751 283.582 377.752C287.583 381.753 293.009 384 298.667 384Z" fill="#D9D9D9"/>
</g>
<defs>
<clipPath id="clip0_3515_3318">
<rect width="512" height="512" fill="white"/>
</clipPath>
</defs>
</svg>
