<svg width="512" height="512" viewBox="0 0 512 512" fill="none" xmlns="http://www.w3.org/2000/svg">
<g clip-path="url(#clip0_3515_3355)">
<path d="M362.666 170.667H149.333V149.333C149.326 125.683 157.18 102.702 171.658 84.0016C186.137 65.3016 206.42 51.9437 229.318 46.028C252.217 40.1123 276.432 41.9743 298.156 51.3213C319.881 60.6683 337.883 76.9702 349.333 97.6641C350.693 100.114 352.522 102.272 354.716 104.015C356.911 105.758 359.427 107.052 362.121 107.822C364.815 108.593 367.634 108.825 370.418 108.506C373.202 108.187 375.896 107.323 378.346 105.963C380.796 104.603 382.954 102.773 384.697 100.579C386.44 98.3849 387.734 95.8689 388.504 93.1748C389.275 90.4806 389.507 87.6611 389.188 84.8771C388.869 82.0932 388.005 79.3993 386.645 76.9494C370.608 47.9854 345.402 25.1717 314.987 12.0942C284.572 -0.983248 250.674 -3.58288 218.621 4.70396C186.567 12.9908 158.177 31.6942 137.911 57.8742C117.646 84.0542 106.655 116.226 106.666 149.333V179.712C87.6657 188.004 71.4936 201.654 60.1273 218.991C48.7611 236.329 42.6933 256.602 42.666 277.333V405.333C42.6999 433.613 53.9488 460.724 73.9454 480.721C93.9419 500.717 121.053 511.966 149.333 512H362.666C390.945 511.966 418.057 500.717 438.053 480.721C458.05 460.724 469.299 433.613 469.333 405.333V277.333C469.299 249.054 458.05 221.943 438.053 201.946C418.057 181.95 390.945 170.701 362.666 170.667ZM426.666 405.333C426.666 422.307 419.923 438.586 407.921 450.588C395.919 462.591 379.64 469.333 362.666 469.333H149.333C132.359 469.333 116.08 462.591 104.078 450.588C92.0755 438.586 85.3327 422.307 85.3327 405.333V277.333C85.3327 260.36 92.0755 244.081 104.078 232.079C116.08 220.076 132.359 213.333 149.333 213.333H362.666C379.64 213.333 395.919 220.076 407.921 232.079C419.923 244.081 426.666 260.36 426.666 277.333V405.333Z" fill="#D9D9D9"/>
<path d="M255.999 298.667C250.341 298.667 244.915 300.915 240.914 304.915C236.914 308.916 234.666 314.342 234.666 320V362.667C234.666 368.325 236.914 373.751 240.914 377.752C244.915 381.753 250.341 384 255.999 384C261.657 384 267.084 381.753 271.084 377.752C275.085 373.751 277.333 368.325 277.333 362.667V320C277.333 314.342 275.085 308.916 271.084 304.915C267.084 300.915 261.657 298.667 255.999 298.667Z" fill="#D9D9D9"/>
</g>
<defs>
<clipPath id="clip0_3515_3355">
<rect width="512" height="512" fill="white"/>
</clipPath>
</defs>
</svg>
