<svg width="512" height="512" viewBox="0 0 512 512" fill="none" xmlns="http://www.w3.org/2000/svg">
<path d="M508.181 238.528C489.45 197.568 415.999 64 255.999 64C95.9992 64 22.5485 197.568 3.81787 238.528C1.30349 244.017 0.00195313 249.984 0.00195312 256.021C0.00195312 262.059 1.30349 268.026 3.81787 273.515C22.5485 314.432 95.9992 448 255.999 448C415.999 448 489.45 314.432 508.181 273.472C510.69 267.989 511.989 262.03 511.989 256C511.989 249.97 510.69 244.011 508.181 238.528ZM255.999 405.333C121.45 405.333 58.6659 290.859 42.6659 256.235C58.6659 221.141 121.45 106.667 255.999 106.667C390.229 106.667 453.034 220.651 469.333 256C453.034 291.349 390.229 405.333 255.999 405.333Z" fill="#D9D9D9"/>
<path d="M255.999 149.333C234.902 149.333 214.279 155.589 196.738 167.31C179.197 179.031 165.525 195.69 157.452 215.181C149.378 234.671 147.266 256.118 151.382 276.81C155.497 297.501 165.656 316.507 180.574 331.425C195.492 346.342 214.498 356.502 235.189 360.617C255.88 364.733 277.328 362.621 296.818 354.547C316.309 346.474 332.968 332.802 344.689 315.261C356.41 297.72 362.665 277.097 362.665 256C362.632 227.721 351.383 200.609 331.386 180.613C311.39 160.616 284.278 149.367 255.999 149.333ZM255.999 320C243.341 320 230.967 316.247 220.442 309.214C209.917 302.182 201.714 292.186 196.87 280.492C192.026 268.797 190.759 255.929 193.228 243.514C195.698 231.1 201.793 219.696 210.744 210.745C219.694 201.795 231.098 195.699 243.513 193.23C255.928 190.76 268.796 192.028 280.49 196.872C292.185 201.716 302.18 209.919 309.213 220.444C316.245 230.968 319.999 243.342 319.999 256C319.999 272.974 313.256 289.253 301.254 301.255C289.251 313.257 272.973 320 255.999 320Z" fill="#D9D9D9"/>
</svg>
