<svg width="512" height="512" viewBox="0 0 512 512" fill="none" xmlns="http://www.w3.org/2000/svg">
<g clip-path="url(#clip0_3515_3393)">
<path d="M490.667 469.333H106.667C89.6928 469.333 73.4142 462.591 61.4118 450.588C49.4095 438.586 42.6667 422.307 42.6667 405.333V21.3333C42.6667 15.6754 40.4191 10.2492 36.4183 6.24839C32.4175 2.24761 26.9913 0 21.3333 0C15.6754 0 10.2492 2.24761 6.24839 6.24839C2.24761 10.2492 0 15.6754 0 21.3333L0 405.333C0.0338743 433.613 11.2828 460.724 31.2794 480.721C51.2759 500.717 78.3873 511.966 106.667 512H490.667C496.325 512 501.751 509.752 505.752 505.752C509.752 501.751 512 496.325 512 490.667C512 485.009 509.752 479.582 505.752 475.582C501.751 471.581 496.325 469.333 490.667 469.333Z" fill="#F1F3F5"/>
<path d="M127.999 426.667C133.657 426.667 139.084 424.419 143.084 420.419C147.085 416.418 149.333 410.992 149.333 405.334V256C149.333 250.342 147.085 244.916 143.084 240.915C139.084 236.915 133.657 234.667 127.999 234.667C122.341 234.667 116.915 236.915 112.914 240.915C108.914 244.916 106.666 250.342 106.666 256V405.334C106.666 410.992 108.914 416.418 112.914 420.419C116.915 424.419 122.341 426.667 127.999 426.667Z" fill="#F1F3F5"/>
<path d="M213.334 213.333V405.333C213.334 410.991 215.582 416.418 219.582 420.418C223.583 424.419 229.009 426.667 234.667 426.667C240.325 426.667 245.751 424.419 249.752 420.418C253.753 416.418 256.001 410.991 256.001 405.333V213.333C256.001 207.675 253.753 202.249 249.752 198.248C245.751 194.248 240.325 192 234.667 192C229.009 192 223.583 194.248 219.582 198.248C215.582 202.249 213.334 207.675 213.334 213.333Z" fill="#F1F3F5"/>
<path d="M320 277.333V405.333C320 410.991 322.248 416.418 326.248 420.418C330.249 424.419 335.675 426.667 341.333 426.667C346.991 426.667 352.418 424.419 356.418 420.418C360.419 416.418 362.667 410.991 362.667 405.333V277.333C362.667 271.675 360.419 266.249 356.418 262.248C352.418 258.248 346.991 256 341.333 256C335.675 256 330.249 258.248 326.248 262.248C322.248 266.249 320 271.675 320 277.333Z" fill="#F1F3F5"/>
<path d="M426.666 192V405.334C426.666 410.992 428.914 416.418 432.914 420.419C436.915 424.419 442.341 426.667 447.999 426.667C453.657 426.667 459.084 424.419 463.084 420.419C467.085 416.418 469.333 410.992 469.333 405.334V192C469.333 186.342 467.085 180.916 463.084 176.915C459.084 172.915 453.657 170.667 447.999 170.667C442.341 170.667 436.915 172.915 432.914 176.915C428.914 180.916 426.666 186.342 426.666 192Z" fill="#F1F3F5"/>
<path d="M128.001 192C133.658 191.998 139.083 189.75 143.083 185.749L219.585 109.248C223.651 105.374 229.051 103.213 234.667 103.213C240.283 103.213 245.684 105.374 249.75 109.248L296.086 155.584C308.088 167.582 324.364 174.322 341.334 174.322C358.305 174.322 374.58 167.582 386.582 155.584L505.75 36.4156C509.636 32.3921 511.786 27.0032 511.738 21.4097C511.689 15.8161 509.445 10.4655 505.49 6.51011C501.535 2.55474 496.184 0.311131 490.591 0.262525C484.997 0.213919 479.608 2.3642 475.585 6.25024L356.417 125.397C352.416 129.396 346.991 131.643 341.334 131.643C335.677 131.643 330.252 129.396 326.251 125.397L279.915 79.0822C267.914 67.0841 251.638 60.3439 234.667 60.3439C217.697 60.3439 201.421 67.0841 189.419 79.0822L112.918 155.584C109.935 158.567 107.904 162.368 107.082 166.506C106.259 170.643 106.681 174.932 108.296 178.83C109.91 182.727 112.643 186.059 116.151 188.403C119.658 190.747 123.782 191.999 128.001 192Z" fill="#F1F3F5"/>
</g>
<defs>
<clipPath id="clip0_3515_3393">
<rect width="512" height="512" fill="white"/>
</clipPath>
</defs>
</svg>
