<svg width="512" height="512" viewBox="0 0 512 512" fill="none" xmlns="http://www.w3.org/2000/svg">
<g clip-path="url(#clip0_3515_3430)">
<path d="M480.001 84.8213H414.166C409.947 84.8222 405.824 86.0739 402.316 88.4181C398.809 90.7623 396.075 94.0937 394.461 97.9913C392.847 101.889 392.424 106.178 393.247 110.315C394.07 114.453 396.101 118.254 399.083 121.237L422.251 144.405L345.75 220.885C341.685 224.77 336.279 226.938 330.657 226.938C325.034 226.938 319.628 224.77 315.563 220.885L311.937 217.237C299.747 205.591 283.537 199.092 266.678 199.092C249.819 199.092 233.609 205.591 221.419 217.237L112.619 326.037C108.611 330.057 106.363 335.505 106.371 341.182C106.379 346.859 108.642 352.301 112.662 356.309C116.682 360.318 122.13 362.565 127.807 362.557C133.484 362.549 138.925 360.287 142.934 356.267L251.734 247.467C255.796 243.577 261.203 241.406 266.827 241.406C272.451 241.406 277.858 243.577 281.921 247.467L285.547 251.115C297.742 262.751 313.95 269.244 330.806 269.244C347.662 269.244 363.87 262.751 376.065 251.115L452.566 174.613L475.734 197.781C478.728 200.716 482.519 202.703 486.636 203.495C490.752 204.288 495.01 203.85 498.879 202.236C502.748 200.623 506.056 197.905 508.39 194.423C510.723 190.94 511.979 186.848 512.001 182.656V116.821C512.001 108.334 508.629 100.195 502.628 94.1939C496.627 88.1927 488.488 84.8213 480.001 84.8213Z" fill="#F1F3F5"/>
<path d="M490.667 468.821H106.667C89.6928 468.821 73.4142 462.079 61.4118 450.076C49.4095 438.074 42.6667 421.795 42.6667 404.821V21.3333C42.6667 15.6754 40.4191 10.2492 36.4183 6.24839C32.4175 2.24761 26.9913 0 21.3333 0C15.6754 0 10.2492 2.24761 6.24839 6.24839C2.24761 10.2492 0 15.6754 0 21.3333L0 404.821C0.0338743 433.101 11.2828 460.212 31.2794 480.209C51.2759 500.205 78.3873 511.454 106.667 511.488H490.667C496.325 511.488 501.751 509.24 505.752 505.24C509.752 501.239 512 495.813 512 490.155C512 484.497 509.752 479.07 505.752 475.07C501.751 471.069 496.325 468.821 490.667 468.821Z" fill="#F1F3F5"/>
</g>
<defs>
<clipPath id="clip0_3515_3430">
<rect width="512" height="512" fill="white"/>
</clipPath>
</defs>
</svg>
