<svg width="512" height="512" viewBox="0 0 512 512" fill="none" xmlns="http://www.w3.org/2000/svg">
<g clip-path="url(#clip0_3515_3465)">
<path d="M255.999 0C192.191 0 131.989 23.744 85.3327 65.664V21.3333C85.3327 9.536 75.7753 0 63.9993 0C52.2233 0 42.666 9.536 42.666 21.3333V106.667C42.666 130.197 61.802 149.333 85.3327 149.333H170.666C182.442 149.333 191.999 139.797 191.999 128C191.999 116.203 182.442 106.667 170.666 106.667H103.893C143.914 65.856 198.229 42.6667 255.999 42.6667C373.631 42.6667 469.333 138.368 469.333 256C469.333 373.632 373.631 469.333 255.999 469.333C144.853 469.333 53.5033 385.963 43.5407 275.413C42.4953 263.68 32.3193 255.019 20.3727 256.085C8.63933 257.152 -0.000666618 267.52 1.04467 279.253C13.0127 411.947 122.623 512 255.999 512C397.162 512 511.999 397.163 511.999 256C511.999 114.837 397.162 0 255.999 0Z" fill="#F1F3F5"/>
</g>
<defs>
<clipPath id="clip0_3515_3465">
<rect width="512" height="512" fill="white"/>
</clipPath>
</defs>
</svg>
