<svg width="512" height="512" viewBox="0 0 512 512" fill="none" xmlns="http://www.w3.org/2000/svg">
<g clip-path="url(#clip0_3515_3478)">
<path d="M396.394 45.6536L262.741 1.08825C258.365 -0.369262 253.634 -0.369262 249.258 1.08825L115.605 45.6536C94.3547 52.7124 75.8696 66.2884 62.7758 84.4527C49.682 102.617 42.6455 124.446 42.6661 146.838V256C42.6661 417.344 238.933 506.454 247.338 510.166C250.065 511.377 253.016 512.003 255.999 512.003C258.983 512.003 261.934 511.377 264.661 510.166C273.066 506.454 469.333 417.344 469.333 256V146.838C469.353 124.446 462.317 102.617 449.223 84.4527C436.129 66.2884 417.644 52.7124 396.394 45.6536ZM426.666 256C426.666 372.374 291.861 448.704 255.999 466.966C220.095 448.768 85.3327 372.672 85.3327 256V146.838C85.334 133.404 89.5626 120.31 97.4194 109.413C105.276 98.5164 116.363 90.3681 129.109 86.1229L255.999 43.8189L382.89 86.1229C395.636 90.3681 406.723 98.5164 414.579 109.413C422.436 120.31 426.665 133.404 426.666 146.838V256Z" fill="#F1F3F5"/>
<path d="M326.401 177.066L237.057 266.666L189.185 216.746C187.264 214.646 184.941 212.951 182.355 211.762C179.769 210.572 176.971 209.913 174.126 209.822C171.28 209.731 168.446 210.21 165.789 211.231C163.132 212.253 160.706 213.795 158.654 215.769C156.602 217.742 154.966 220.106 153.843 222.721C152.719 225.337 152.13 228.151 152.11 230.997C152.09 233.844 152.641 236.665 153.728 239.296C154.816 241.927 156.419 244.313 158.443 246.314L207.638 297.514C211.307 301.477 215.741 304.654 220.673 306.855C225.605 309.055 230.932 310.232 236.331 310.314H237.035C242.327 310.332 247.57 309.298 252.459 307.273C257.348 305.248 261.786 302.271 265.515 298.517L356.651 207.381C358.642 205.395 360.222 203.036 361.301 200.439C362.379 197.842 362.936 195.058 362.939 192.246C362.942 189.434 362.391 186.649 361.318 184.05C360.245 181.451 358.67 179.089 356.683 177.098C354.697 175.108 352.338 173.528 349.741 172.449C347.145 171.37 344.361 170.814 341.549 170.811C338.737 170.808 335.952 171.359 333.353 172.432C330.754 173.505 328.391 175.08 326.401 177.066Z" fill="#F1F3F5"/>
</g>
<defs>
<clipPath id="clip0_3515_3478">
<rect width="512" height="512" fill="white"/>
</clipPath>
</defs>
</svg>
