<svg width="512" height="512" viewBox="0 0 512 512" fill="none" xmlns="http://www.w3.org/2000/svg">
<g clip-path="url(#clip0_3515_3481)">
<path d="M499.649 353.771L429.441 283.563C427.484 281.479 425.128 279.81 422.514 278.654C419.899 277.498 417.079 276.88 414.221 276.836C411.363 276.791 408.525 277.322 405.875 278.396C403.226 279.469 400.82 281.065 398.799 283.087C396.779 285.109 395.185 287.516 394.113 290.166C393.041 292.816 392.513 295.655 392.559 298.513C392.605 301.371 393.226 304.191 394.383 306.804C395.541 309.418 397.212 311.773 399.297 313.728L448.15 362.667C421.593 362.727 395.292 357.473 370.796 347.215C346.3 336.956 324.104 321.9 305.515 302.933C303.451 301.032 301.026 299.565 298.384 298.62C295.742 297.674 292.937 297.269 290.135 297.428C287.334 297.587 284.593 298.307 282.075 299.546C279.557 300.785 277.314 302.517 275.478 304.64L275.201 305.067C271.614 309.239 269.778 314.636 270.076 320.129C270.374 325.623 272.784 330.79 276.801 334.549C299.196 357.199 325.903 375.132 355.344 387.289C384.785 399.446 416.363 405.582 448.214 405.333L399.297 454.251C397.068 456.168 395.259 458.525 393.984 461.175C392.71 463.824 391.996 466.708 391.889 469.647C391.782 472.585 392.283 475.513 393.361 478.249C394.44 480.984 396.072 483.467 398.155 485.541C400.239 487.616 402.728 489.237 405.468 490.304C408.208 491.371 411.139 491.86 414.077 491.74C417.014 491.62 419.896 490.895 422.539 489.609C425.183 488.322 427.533 486.504 429.441 484.267L499.649 414.059C507.634 406.059 512.12 395.218 512.12 383.915C512.12 372.611 507.634 361.77 499.649 353.771Z" fill="#F1F3F5"/>
<path d="M448.15 149.334L399.297 198.187C398.881 198.749 398.496 199.333 398.145 199.936C394.702 204.134 393.004 209.494 393.402 214.908C393.8 220.322 396.263 225.376 400.282 229.025C404.301 232.674 409.569 234.639 414.996 234.514C420.423 234.389 425.594 232.183 429.441 228.352L465.836 192L499.67 158.187C505.391 152.422 509.347 145.144 511.074 137.208C512.801 129.272 512.227 121.008 509.42 113.387C507.347 107.553 504.01 102.25 499.649 97.8565L429.441 27.7338C427.493 25.6177 425.138 23.9173 422.516 22.7347C419.895 21.5521 417.061 20.9118 414.186 20.8522C411.311 20.7927 408.453 21.3151 405.785 22.3881C403.116 23.461 400.693 25.0625 398.659 27.096C396.626 29.1296 395.024 31.5534 393.951 34.2217C392.878 36.8899 392.356 39.7476 392.415 42.6229C392.475 45.4982 393.115 48.3318 394.298 50.9533C395.48 53.5748 397.181 55.9302 399.297 57.8778L448.214 106.774C342.977 107.03 285.292 163.819 232.982 223.552C184.94 169.323 128.001 115.2 31.7236 107.648L21.4622 106.667C15.8043 106.667 10.3781 108.915 6.37729 112.916C2.37652 116.916 0.128906 122.343 0.128906 128C0.238136 133.624 2.52082 138.987 6.49816 142.965C10.4755 146.942 15.8385 149.225 21.4622 149.334C22.9982 149.334 27.5849 150.038 27.5849 150.038C110.7 156.331 158.401 203.136 204.801 256C158.678 308.608 111.297 356.267 28.8649 361.814L20.3316 362.262C14.7161 362.613 9.46989 365.18 5.74717 369.399C2.02444 373.617 0.130113 379.142 0.480906 384.758C0.831699 390.373 3.39888 395.62 7.6177 399.342C11.8365 403.065 17.3614 404.959 22.9769 404.608C26.3049 404.459 31.7236 404.331 34.3902 404.118C141.484 395.862 199.574 327.318 251.372 267.392C303.681 206.934 353.089 149.718 448.15 149.334Z" fill="#F1F3F5"/>
</g>
<defs>
<clipPath id="clip0_3515_3481">
<rect width="512" height="512" fill="white"/>
</clipPath>
</defs>
</svg>
