<svg width="512" height="512" viewBox="0 0 512 512" fill="none" xmlns="http://www.w3.org/2000/svg">
<g clip-path="url(#clip0_3515_3508)">
<path d="M234.815 54.9972L234.666 384.341C234.666 389.999 236.913 395.425 240.914 399.426C244.915 403.427 250.341 405.675 255.999 405.675C261.657 405.675 267.083 403.427 271.084 399.426C275.085 395.425 277.333 389.999 277.333 384.341L277.482 55.3599L339.605 117.504C343.605 121.503 349.03 123.75 354.687 123.75C360.344 123.75 365.769 121.503 369.77 117.504C373.769 113.503 376.016 108.078 376.016 102.421C376.016 96.7644 373.769 91.3391 369.77 87.3385L301.269 18.7519C295.325 12.8046 288.268 8.08669 280.5 4.86782C272.733 1.64896 264.407 -0.0078125 255.999 -0.0078125C247.591 -0.0078125 239.265 1.64896 231.498 4.86782C223.73 8.08669 216.673 12.8046 210.73 18.7519L142.229 87.2745C138.229 91.2751 135.982 96.7004 135.982 102.357C135.982 108.014 138.229 113.439 142.229 117.44C146.229 121.439 151.654 123.686 157.311 123.686C162.968 123.686 168.393 121.439 172.394 117.44L234.815 54.9972Z" fill="#F1F3F5"/>
<path d="M469.333 362.666V448C469.333 453.658 467.086 459.084 463.085 463.085C459.084 467.085 453.658 469.333 448 469.333H64C58.342 469.333 52.9158 467.085 48.9151 463.085C44.9143 459.084 42.6667 453.658 42.6667 448V362.666C42.6667 357.008 40.4191 351.582 36.4183 347.581C32.4175 343.581 26.9913 341.333 21.3333 341.333C15.6754 341.333 10.2492 343.581 6.24839 347.581C2.24761 351.582 0 357.008 0 362.666L0 448C0 464.974 6.74284 481.252 18.7452 493.255C30.7475 505.257 47.0261 512 64 512H448C464.974 512 481.253 505.257 493.255 493.255C505.257 481.252 512 464.974 512 448V362.666C512 357.008 509.752 351.582 505.752 347.581C501.751 343.581 496.325 341.333 490.667 341.333C485.009 341.333 479.582 343.581 475.582 347.581C471.581 351.582 469.333 357.008 469.333 362.666Z" fill="#F1F3F5"/>
</g>
<defs>
<clipPath id="clip0_3515_3508">
<rect width="512" height="512" fill="white"/>
</clipPath>
</defs>
</svg>
